0
SECTION
2
ENTITIES
0
3DFACE
8
0
10
-34.686752
20
-34.18181
30
-2178.4753
11
18.549591
21
215.88548
31
-2248.5444
12
-94.661316
22
9.724935
32
-2158.6494
13
-94.66122
23
9.725035
33
-2158.6494
0
3DFACE
8
0
10
18.549591
20
215.88548
30
-2248.5444
11
-34.686752
21
-34.18181
31
-2178.4753
12
88.24976
22
164.85873
32
-2271.5854
13
88.24986
23
164.85884
33
-2271.5854
0
3DFACE
8
0
10
88.24976
20
164.85873
30
-2271.5854
11
-94.661316
21
9.724935
31
-2158.6494
12
18.549591
22
215.88548
32
-2248.5444
13
18.54969
23
215.88559
33
-2248.5444
0
3DFACE
8
0
10
-94.661316
20
9.724935
30
-2158.6494
11
88.24976
21
164.85873
31
-2271.5854
12
-34.686752
22
-34.18181
32
-2178.4753
13
-34.686653
23
-34.18171
33
-2178.4753
0
3DFACE
8
0
10
-34.686752
20
-34.18181
30
-2178.4753
11
-238.57318
21
-193.2816
31
-2120.2083
12
-94.661316
22
9.724935
32
-2158.6494
13
-94.66122
23
9.725035
33
-2158.6494
0
3DFACE
8
0
10
-238.57318
20
-193.2816
30
-2120.2083
11
-34.686752
21
-34.18181
31
-2178.4753
12
-168.87302
22
-244.30835
32
-2143.249
13
-168.87291
23
-244.30824
33
-2143.249
0
3DFACE
8
0
10
-168.87302
20
-244.30835
30
-2143.249
11
-34.686752
21
-34.18181
31
-2178.4753
12
-238.57318
22
-193.2816
32
-2120.2083
13
-238.57307
23
-193.2815
33
-2120.2083
0
3DFACE
8
0
10
-34.686752
20
-34.18181
30
-2178.4753
11
-168.87302
21
-244.30835
31
-2143.249
12
31.285477
22
-72.17821
32
-2167.4412
13
31.285576
23
-72.17811
33
-2167.4412
0
3DFACE
8
0
10
31.285477
20
-72.17821
30
-2167.4412
11
88.24976
21
164.85873
31
-2271.5854
12
-34.686752
22
-34.18181
32
-2178.4753
13
-34.686653
23
-34.18171
33
-2178.4753
0
3DFACE
8
0
10
88.24976
20
164.85873
30
-2271.5854
11
31.285477
21
-72.17821
31
-2167.4412
12
164.92018
22
120.70075
32
-2258.7617
13
164.92029
23
120.70085
33
-2258.7617
0
3DFACE
8
0
10
164.92018
20
120.70075
30
-2258.7617
11
-34.686752
21
-34.18181
31
-2178.4753
12
88.24976
22
164.85873
32
-2271.5854
13
88.24986
23
164.85884
33
-2271.5854
0
3DFACE
8
0
10
-34.686752
20
-34.18181
30
-2178.4753
11
164.92018
21
120.70075
31
-2258.7617
12
31.285477
22
-72.17821
32
-2167.4412
13
31.285576
23
-72.17811
33
-2167.4412
0
3DFACE
8
0
10
31.285477
20
-72.17821
30
-2167.4412
11
-168.87302
21
-244.30835
31
-2143.249
12
-34.686752
22
-34.18181
32
-2178.4753
13
-34.686653
23
-34.18171
33
-2178.4753
0
3DFACE
8
0
10
-168.87302
20
-244.30835
30
-2143.249
11
31.285477
21
-72.17821
31
-2167.4412
12
-92.20259
22
-288.46634
32
-2130.4255
13
-92.20249
23
-288.46625
33
-2130.4255
0
3DFACE
8
0
10
-92.20259
20
-288.46634
30
-2130.4255
11
31.285477
21
-72.17821
31
-2167.4412
12
-168.87302
22
-244.30835
32
-2143.249
13
-168.87291
23
-244.30824
33
-2143.249
0
3DFACE
8
0
10
31.285477
20
-72.17821
30
-2167.4412
11
-92.20259
21
-288.46634
31
-2130.4255
12
91.84816
22
-97.69434
32
-2127.4548
13
91.84826
23
-97.694244
33
-2127.4548
0
3DFACE
8
0
10
91.84816
20
-97.69434
30
-2127.4548
11
164.92018
21
120.70075
31
-2258.7617
12
31.285477
22
-72.17821
32
-2167.4412
13
31.285576
23
-72.17811
33
-2167.4412
0
3DFACE
8
0
10
164.92018
20
120.70075
30
-2258.7617
11
91.84816
21
-97.69434
31
-2127.4548
12
235.30382
22
91.04688
32
-2212.2913
13
235.30392
23
91.04698
33
-2212.2913
0
3DFACE
8
0
10
235.30382
20
91.04688
30
-2212.2913
11
31.285477
21
-72.17821
31
-2167.4412
12
164.92018
22
120.70075
32
-2258.7617
13
164.92029
23
120.70085
33
-2258.7617
0
3DFACE
8
0
10
31.285477
20
-72.17821
30
-2167.4412
11
235.30382
21
91.04688
31
-2212.2913
12
91.84816
22
-97.69434
32
-2127.4548
13
91.84826
23
-97.694244
33
-2127.4548
0
3DFACE
8
0
10
91.84816
20
-97.69434
30
-2127.4548
11
-92.20259
21
-288.46634
31
-2130.4255
12
31.285477
22
-72.17821
32
-2167.4412
13
31.285576
23
-72.17811
33
-2167.4412
0
3DFACE
8
0
10
-92.20259
20
-288.46634
30
-2130.4255
11
91.84816
21
-97.69434
31
-2127.4548
12
-21.818954
22
-318.1202
32
-2083.955
13
-21.818855
23
-318.12012
33
-2083.955
0
3DFACE
8
0
10
-21.818954
20
-318.1202
30
-2083.955
11
91.84816
21
-97.69434
31
-2127.4548
12
-92.20259
22
-288.46634
32
-2130.4255
13
-92.20249
23
-288.46625
33
-2130.4255
0
3DFACE
8
0
10
91.84816
20
-97.69434
30
-2127.4548
11
-21.818954
21
-318.1202
31
-2083.955
12
136.52946
22
-106.31822
32
-2065.4304
13
136.52957
23
-106.31812
33
-2065.4304
0
3DFACE
8
0
10
136.52946
20
-106.31822
30
-2065.4304
11
235.30382
21
91.04688
31
-2212.2913
12
91.84816
22
-97.69434
32
-2127.4548
13
91.84826
23
-97.694244
33
-2127.4548
0
3DFACE
8
0
10
235.30382
20
91.04688
30
-2212.2913
11
136.52946
21
-106.31822
31
-2065.4304
12
287.23074
22
81.02455
32
-2140.209
13
287.23083
23
81.02465
33
-2140.209
0
3DFACE
8
0
10
287.23074
20
81.02455
30
-2140.209
11
91.84816
21
-97.69434
31
-2127.4548
12
235.30382
22
91.04688
32
-2212.2913
13
235.30392
23
91.04698
33
-2212.2913
0
3DFACE
8
0
10
91.84816
20
-97.69434
30
-2127.4548
11
287.23074
21
81.02455
31
-2140.209
12
136.52946
22
-106.31822
32
-2065.4304
13
136.52957
23
-106.31812
33
-2065.4304
0
3DFACE
8
0
10
136.52946
20
-106.31822
30
-2065.4304
11
-21.818954
21
-318.1202
31
-2083.955
12
91.84816
22
-97.69434
32
-2127.4548
13
91.84826
23
-97.694244
33
-2127.4548
0
3DFACE
8
0
10
-21.818954
20
-318.1202
30
-2083.955
11
136.52946
21
-106.31822
31
-2065.4304
12
30.107964
22
-328.14255
32
-2011.8727
13
30.108063
23
-328.14246
33
-2011.8726
0
3DFACE
8
0
10
30.107964
20
-328.14255
30
-2011.8727
11
136.52946
21
-106.31822
31
-2065.4304
12
-21.818954
22
-318.1202
32
-2083.955
13
-21.818855
23
-318.12012
33
-2083.955
0
3DFACE
8
0
10
136.52946
20
-106.31822
30
-2065.4304
11
30.107964
21
-328.14255
31
-2011.8727
12
157.60356
22
-96.55869
32
-1992.0925
13
157.60367
23
-96.55859
33
-1992.0924
0
3DFACE
8
0
10
157.60356
20
-96.55869
30
-1992.0925
11
287.23074
21
81.02455
31
-2140.209
12
136.52946
22
-106.31822
32
-2065.4304
13
136.52957
23
-106.31812
33
-2065.4304
0
3DFACE
8
0
10
287.23074
20
81.02455
30
-2140.209
11
157.60356
21
-96.55869
31
-1992.0925
12
311.7223
22
92.36668
32
-2054.9783
13
311.72238
23
92.366776
33
-2054.9783
0
3DFACE
8
0
10
311.7223
20
92.36668
30
-2054.9783
11
136.52946
21
-106.31822
31
-2065.4304
12
287.23074
22
81.02455
32
-2140.209
13
287.23083
23
81.02465
33
-2140.209
0
3DFACE
8
0
10
136.52946
20
-106.31822
30
-2065.4304
11
311.7223
21
92.36668
31
-2054.9783
12
157.60356
22
-96.55869
32
-1992.0925
13
157.60367
23
-96.55859
33
-1992.0924
0
3DFACE
8
0
10
157.60356
20
-96.55869
30
-1992.0925
11
30.107964
21
-328.14255
31
-2011.8727
12
136.52946
22
-106.31822
32
-2065.4304
13
136.52957
23
-106.31812
33
-2065.4304
0
3DFACE
8
0
10
30.107964
20
-328.14255
30
-2011.8727
11
157.60356
21
-96.55869
31
-1992.0925
12
54.599503
22
-316.8004
32
-1926.6421
13
54.5996
23
-316.80032
33
-1926.642
0
3DFACE
8
0
10
54.599503
20
-316.8004
30
-1926.6421
11
157.60356
21
-96.55869
31
-1992.0925
12
30.107964
22
-328.14255
32
-2011.8727
13
30.108063
23
-328.14246
33
-2011.8726
0
3DFACE
8
0
10
157.60356
20
-96.55869
30
-1992.0925
11
54.599503
21
-316.8004
31
-1926.6421
12
151.42659
22
-70.1033
32
-1920.122
13
151.4267
23
-70.1032
33
-1920.1218
0
3DFACE
8
0
10
151.42659
20
-70.1033
30
-1920.122
11
311.7223
21
92.36668
31
-2054.9783
12
157.60356
22
-96.55869
32
-1992.0925
13
157.60367
23
-96.55859
33
-1992.0924
0
3DFACE
8
0
10
311.7223
20
92.36668
30
-2054.9783
11
151.42659
21
-70.1033
31
-1920.122
12
304.54364
22
123.11213
32
-1971.3368
13
304.54373
23
123.11223
33
-1971.3367
0
3DFACE
8
0
10
304.54364
20
123.11213
30
-1971.3368
11
157.60356
21
-96.55869
31
-1992.0925
12
311.7223
22
92.36668
32
-2054.9783
13
311.72238
23
92.366776
33
-2054.9783
0
3DFACE
8
0
10
157.60356
20
-96.55869
30
-1992.0925
11
304.54364
21
123.11213
31
-1971.3368
12
151.42659
22
-70.1033
32
-1920.122
13
151.4267
23
-70.1032
33
-1920.1218
0
3DFACE
8
0
10
151.42659
20
-70.1033
30
-1920.122
11
54.599503
21
-316.8004
31
-1926.6421
12
157.60356
22
-96.55869
32
-1992.0925
13
157.60367
23
-96.55859
33
-1992.0924
0
3DFACE
8
0
10
54.599503
20
-316.8004
30
-1926.6421
11
151.42659
21
-70.1033
31
-1920.122
12
47.420853
22
-286.05496
32
-1843.0006
13
47.42095
23
-286.05487
33
-1843.0005
0
3DFACE
8
0
10
47.420853
20
-286.05496
30
-1843.0006
11
151.42659
21
-70.1033
31
-1920.122
12
54.599503
22
-316.8004
32
-1926.6421
13
54.5996
23
-316.80032
33
-1926.642
0
3DFACE
8
0
10
151.42659
20
-70.1033
30
-1920.122
11
47.420853
21
-286.05496
31
-1843.0006
12
119.06658
22
-31.526407
32
-1861.9629
13
119.06668
23
-31.526308
33
-1861.9628
0
3DFACE
8
0
10
119.06658
20
-31.526407
30
-1861.9629
11
304.54364
21
123.11213
31
-1971.3368
12
151.42659
22
-70.1033
32
-1920.122
13
151.4267
23
-70.1032
33
-1920.1218
0
3DFACE
8
0
10
304.54364
20
123.11213
30
-1971.3368
11
119.06658
21
-31.526407
31
-1861.9629
12
266.93604
22
167.94473
32
-1903.7466
13
266.93613
23
167.94484
33
-1903.7465
0
3DFACE
8
0
10
266.93604
20
167.94473
30
-1903.7466
11
151.42659
21
-70.1033
31
-1920.122
12
304.54364
22
123.11213
32
-1971.3368
13
304.54373
23
123.11223
33
-1971.3367
0
3DFACE
8
0
10
151.42659
20
-70.1033
30
-1920.122
11
266.93604
21
167.94473
31
-1903.7466
12
119.06658
22
-31.526407
32
-1861.9629
13
119.06668
23
-31.526308
33
-1861.9628
0
3DFACE
8
0
10
119.06658
20
-31.526407
30
-1861.9629
11
47.420853
21
-286.05496
31
-1843.0006
12
151.42659
22
-70.1033
32
-1920.122
13
151.4267
23
-70.1032
33
-1920.1218
0
3DFACE
8
0
10
47.420853
20
-286.05496
30
-1843.0006
11
119.06658
21
-31.526407
31
-1861.9629
12
9.813286
22
-241.22235
32
-1775.4104
13
9.813386
23
-241.22224
33
-1775.4103
0
3DFACE
8
0
10
9.813286
20
-241.22235
30
-1775.4104
11
119.06658
21
-31.526407
31
-1861.9629
12
47.420853
22
-286.05496
32
-1843.0006
13
47.42095
23
-286.05487
33
-1843.0005
0
3DFACE
8
0
10
119.06658
20
-31.526407
30
-1861.9629
11
9.813286
21
-241.22235
31
-1775.4104
12
66.11888
22
12.501701
32
-1827.6719
13
66.11898
23
12.5018015
33
-1827.6718
0
3DFACE
8
0
10
66.11888
20
12.501701
30
-1827.6719
11
266.93604
21
167.94473
31
-1903.7466
12
119.06658
22
-31.526407
32
-1861.9629
13
119.06668
23
-31.526308
33
-1861.9628
0
3DFACE
8
0
10
266.93604
20
167.94473
30
-1903.7466
11
66.11888
21
12.501701
31
-1827.6719
12
205.40224
22
219.11253
32
-1863.8948
13
205.40234
23
219.11264
33
-1863.8947
0
3DFACE
8
0
10
205.40224
20
219.11253
30
-1863.8948
11
119.06658
21
-31.526407
31
-1861.9629
12
266.93604
22
167.94473
32
-1903.7466
13
266.93613
23
167.94484
33
-1903.7465
0
3DFACE
8
0
10
119.06658
20
-31.526407
30
-1861.9629
11
205.40224
21
219.11253
31
-1863.8948
12
66.11888
22
12.501701
32
-1827.6719
13
66.11898
23
12.5018015
33
-1827.6718
0
3DFACE
8
0
10
66.11888
20
12.501701
30
-1827.6719
11
9.813286
21
-241.22235
31
-1775.4104
12
119.06658
22
-31.526407
32
-1861.9629
13
119.06668
23
-31.526308
33
-1861.9628
0
3DFACE
8
0
10
9.813286
20
-241.22235
30
-1775.4104
11
66.11888
21
12.501701
31
-1827.6719
12
-51.72053
22
-190.05455
32
-1735.5586
13
-51.720432
23
-190.05444
33
-1735.5585
0
3DFACE
8
0
10
-51.72053
20
-190.05455
30
-1735.5586
11
66.11888
21
12.501701
31
-1827.6719
12
9.813286
22
-241.22235
32
-1775.4104
13
9.813386
23
-241.22224
33
-1775.4103
0
3DFACE
8
0
10
66.11888
20
12.501701
30
-1827.6719
11
-51.72053
21
-190.05455
31
-1735.5586
12
1.738617
22
54.36816
32
-1823.1779
13
1.738717
23
54.36826
33
-1823.1777
0
3DFACE
8
0
10
1.738617
20
54.36816
30
-1823.1779
11
205.40224
21
219.11253
31
-1863.8948
12
66.11888
22
12.501701
32
-1827.6719
13
66.11898
23
12.5018015
33
-1827.6718
0
3DFACE
8
0
10
205.40224
20
219.11253
30
-1863.8948
11
1.738617
21
54.36816
31
-1823.1779
12
130.58194
22
267.76813
32
-1858.6721
13
130.58205
23
267.76822
33
-1858.672
0
3DFACE
8
0
10
130.58194
20
267.76813
30
-1858.6721
11
66.11888
21
12.501701
31
-1827.6719
12
205.40224
22
219.11253
32
-1863.8948
13
205.40234
23
219.11264
33
-1863.8947
0
3DFACE
8
0
10
66.11888
20
12.501701
30
-1827.6719
11
130.58194
21
267.76813
31
-1858.6721
12
1.738617
22
54.36816
32
-1823.1779
13
1.738717
23
54.36826
33
-1823.1777
0
3DFACE
8
0
10
1.738617
20
54.36816
30
-1823.1779
11
-51.72053
21
-190.05455
31
-1735.5586
12
66.11888
22
12.501701
32
-1827.6719
13
66.11898
23
12.5018015
33
-1827.6718
0
3DFACE
8
0
10
-51.72053
20
-190.05455
30
-1735.5586
11
1.738617
21
54.36816
31
-1823.1779
12
-126.54083
22
-141.39896
32
-1730.3358
13
-126.54073
23
-141.39885
33
-1730.3357
0
3DFACE
8
0
10
-126.54083
20
-141.39896
30
-1730.3358
11
1.738617
21
54.36816
31
-1823.1779
12
-51.72053
22
-190.05455
32
-1735.5586
13
-51.720432
23
-190.05444
33
-1735.5585
0
3DFACE
8
0
10
1.738617
20
54.36816
30
-1823.1779
11
-126.54083
21
-141.39896
31
-1730.3358
12
-62.94226
22
86.83386
32
-1849.2579
13
-62.94216
23
86.83396
33
-1849.2578
0
3DFACE
8
0
10
-62.94226
20
86.83386
30
-1849.2579
11
130.58194
21
267.76813
31
-1858.6721
12
1.738617
22
54.36816
32
-1823.1779
13
1.738717
23
54.36826
33
-1823.1777
0
3DFACE
8
0
10
130.58194
20
267.76813
30
-1858.6721
11
-62.94226
21
86.83386
31
-1849.2579
12
55.412277
22
305.49857
32
-1888.9814
13
55.412376
23
305.49866
33
-1888.9813
0
3DFACE
8
0
10
55.412277
20
305.49857
30
-1888.9814
11
1.738617
21
54.36816
31
-1823.1779
12
130.58194
22
267.76813
32
-1858.6721
13
130.58205
23
267.76822
33
-1858.672
0
3DFACE
8
0
10
1.738617
20
54.36816
30
-1823.1779
11
55.412277
21
305.49857
31
-1888.9814
12
-62.94226
22
86.83386
32
-1849.2579
13
-62.94216
23
86.83396
33
-1849.2578
0
3DFACE
8
0
10
-62.94226
20
86.83386
30
-1849.2579
11
-126.54083
21
-141.39896
31
-1730.3358
12
1.738617
22
54.36816
32
-1823.1779
13
1.738717
23
54.36826
33
-1823.1777
0
3DFACE
8
0
10
-126.54083
20
-141.39896
30
-1730.3358
11
-62.94226
21
86.83386
31
-1849.2579
12
-201.7105
22
-103.66852
32
-1760.6453
13
-201.71039
23
-103.66842
33
-1760.6451
0
3DFACE
8
0
10
-201.7105
20
-103.66852
30
-1760.6453
11
-62.94226
21
86.83386
31
-1849.2579
12
-126.54083
22
-141.39896
32
-1730.3358
13
-126.54073
23
-141.39885
33
-1730.3357
0
3DFACE
8
0
10
-62.94226
20
86.83386
30
-1849.2579
11
-201.7105
21
-103.66852
31
-1760.6453
12
-116.73986
22
104.285225
32
-1901.4028
13
-116.73976
23
104.285324
33
-1901.4027
0
3DFACE
8
0
10
-116.73986
20
104.285225
30
-1901.4028
11
55.412277
21
305.49857
31
-1888.9814
12
-62.94226
22
86.83386
32
-1849.2579
13
-62.94216
23
86.83396
33
-1849.2578
0
3DFACE
8
0
10
55.412277
20
305.49857
30
-1888.9814
11
-116.73986
21
104.285225
31
-1901.4028
12
-7.109253
22
325.77988
32
-1949.5822
13
-7.109153
23
325.77997
33
-1949.582
0
3DFACE
8
0
10
-7.109253
20
325.77988
30
-1949.5822
11
-62.94226
21
86.83386
31
-1849.2579
12
55.412277
22
305.49857
32
-1888.9814
13
55.412376
23
305.49866
33
-1888.9813
0
3DFACE
8
0
10
-62.94226
20
86.83386
30
-1849.2579
11
-7.109253
21
325.77988
31
-1949.5822
12
-116.73986
22
104.285225
32
-1901.4028
13
-116.73976
23
104.285324
33
-1901.4027
0
3DFACE
8
0
10
-116.73986
20
104.285225
30
-1901.4028
11
-201.7105
21
-103.66852
31
-1760.6453
12
-62.94226
22
86.83386
32
-1849.2579
13
-62.94216
23
86.83396
33
-1849.2578
0
3DFACE
8
0
10
-201.7105
20
-103.66852
30
-1760.6453
11
-116.73986
21
104.285225
31
-1901.4028
12
-264.23203
22
-83.38722
32
-1821.246
13
-264.23193
23
-83.38712
33
-1821.2458
0
3DFACE
8
0
10
-264.23203
20
-83.38722
30
-1821.246
11
-116.73986
21
104.285225
31
-1901.4028
12
-201.7105
22
-103.66852
32
-1760.6453
13
-201.71039
23
-103.66842
33
-1760.6451
0
3DFACE
8
0
10
-116.73986
20
104.285225
30
-1901.4028
11
-264.23203
21
-83.38722
31
-1821.246
12
-150.35207
22
103.70471
32
-1970.596
13
-150.35196
23
103.70481
33
-1970.5958
0
3DFACE
8
0
10
-150.35207
20
103.70471
30
-1970.596
11
-7.109253
21
325.77988
31
-1949.5822
12
-116.73986
22
104.285225
32
-1901.4028
13
-116.73976
23
104.285324
33
-1901.4027
0
3DFACE
8
0
10
-7.109253
20
325.77988
30
-1949.5822
11
-150.35207
21
103.70471
31
-1970.596
12
-46.17209
22
325.1052
32
-2029.9958
13
-46.17199
23
325.1053
33
-2029.9957
0
3DFACE
8
0
10
-46.17209
20
325.1052
30
-2029.9958
11
-116.73986
21
104.285225
31
-1901.4028
12
-7.109253
22
325.77988
32
-1949.5822
13
-7.109153
23
325.77997
33
-1949.582
0
3DFACE
8
0
10
-116.73986
20
104.285225
30
-1901.4028
11
-46.17209
21
325.1052
31
-2029.9958
12
-150.35207
22
103.70471
32
-1970.596
13
-150.35196
23
103.70481
33
-1970.5958
0
3DFACE
8
0
10
-150.35207
20
103.70471
30
-1970.596
11
-264.23203
21
-83.38722
31
-1821.246
12
-116.73986
22
104.285225
32
-1901.4028
13
-116.73976
23
104.285324
33
-1901.4027
0
3DFACE
8
0
10
-264.23203
20
-83.38722
30
-1821.246
11
-150.35207
21
103.70471
31
-1970.596
12
-303.29486
22
-84.061874
32
-1901.6597
13
-303.29477
23
-84.061775
33
-1901.6595
0
3DFACE
8
0
10
-303.29486
20
-84.061874
30
-1901.6597
11
-150.35207
21
103.70471
31
-1970.596
12
-264.23203
22
-83.38722
32
-1821.246
13
-264.23193
23
-83.38712
33
-1821.2458
0
3DFACE
8
0
10
-150.35207
20
103.70471
30
-1970.596
11
-303.29486
21
-84.061874
31
-1901.6597
12
-157.96704
22
85.192726
32
-2044.8734
13
-157.96693
23
85.192825
33
-2044.8733
0
3DFACE
8
0
10
-157.96704
20
85.192726
30
-2044.8734
11
-46.17209
21
325.1052
31
-2029.9958
12
-150.35207
22
103.70471
32
-1970.596
13
-150.35196
23
103.70481
33
-1970.5958
0
3DFACE
8
0
10
-46.17209
20
325.1052
30
-2029.9958
11
-157.96704
21
85.192726
31
-2044.8734
12
-55.02192
22
303.59128
32
-2116.3184
13
-55.02182
23
303.59137
33
-2116.3184
0
3DFACE
8
0
10
-55.02192
20
303.59128
30
-2116.3184
11
-150.35207
21
103.70471
31
-1970.596
12
-46.17209
22
325.1052
32
-2029.9958
13
-46.17199
23
325.1053
33
-2029.9957
0
3DFACE
8
0
10
-150.35207
20
103.70471
30
-1970.596
11
-55.02192
21
303.59128
31
-2116.3184
12
-157.96704
22
85.192726
32
-2044.8734
13
-157.96693
23
85.192825
33
-2044.8733
0
3DFACE
8
0
10
-157.96704
20
85.192726
30
-2044.8734
11
-303.29486
21
-84.061874
31
-1901.6597
12
-150.35207
22
103.70471
32
-1970.596
13
-150.35196
23
103.70481
33
-1970.5958
0
3DFACE
8
0
10
-303.29486
20
-84.061874
30
-1901.6597
11
-157.96704
21
85.192726
31
-2044.8734
12
-312.14468
22
-105.5758
32
-1987.982
13
-312.1446
23
-105.5757
33
-1987.9819
0
3DFACE
8
0
10
-312.14468
20
-105.5758
30
-1987.982
11
-157.96704
21
85.192726
31
-2044.8734
12
-303.29486
22
-84.061874
32
-1901.6597
13
-303.29477
23
-84.061775
33
-1901.6595
0
3DFACE
8
0
10
-157.96704
20
85.192726
30
-2044.8734
11
-312.14468
21
-105.5758
31
-1987.982
12
-138.26807
22
51.950146
32
-2111.3918
13
-138.26796
23
51.950245
33
-2111.3918
0
3DFACE
8
0
10
-138.26807
20
51.950146
30
-2111.3918
11
-55.02192
21
303.59128
31
-2116.3184
12
-157.96704
22
85.192726
32
-2044.8734
13
-157.96693
23
85.192825
33
-2044.8733
0
3DFACE
8
0
10
-55.02192
20
303.59128
30
-2116.3184
11
-138.26807
21
51.950146
31
-2111.3918
12
-32.128525
22
264.95804
32
-2193.6235
13
-32.128426
23
264.95813
33
-2193.6235
0
3DFACE
8
0
10
-32.128525
20
264.95804
30
-2193.6235
11
-157.96704
21
85.192726
31
-2044.8734
12
-55.02192
22
303.59128
32
-2116.3184
13
-55.02182
23
303.59137
33
-2116.3184
0
3DFACE
8
0
10
-157.96704
20
85.192726
30
-2044.8734
11
-32.128525
21
264.95804
31
-2193.6235
12
-138.26807
22
51.950146
32
-2111.3918
13
-138.26796
23
51.950245
33
-2111.3918
0
3DFACE
8
0
10
-138.26807
20
51.950146
30
-2111.3918
11
-312.14468
21
-105.5758
31
-1987.982
12
-157.96704
22
85.192726
32
-2044.8734
13
-157.96693
23
85.192825
33
-2044.8733
0
3DFACE
8
0
10
-312.14468
20
-105.5758
30
-1987.982
11
-138.26807
21
51.950146
31
-2111.3918
12
-289.25128
22
-144.20906
32
-2065.287
13
-289.2512
23
-144.20895
33
-2065.287
0
3DFACE
8
0
10
-289.25128
20
-144.20906
30
-2065.287
11
-138.26807
21
51.950146
31
-2111.3918
12
-312.14468
22
-105.5758
32
-1987.982
13
-312.1446
23
-105.5757
33
-1987.9819
0
3DFACE
8
0
10
-138.26807
20
51.950146
30
-2111.3918
11
-289.25128
21
-144.20906
31
-2065.287
12
-94.66129
22
9.724916
32
-2158.6494
13
-94.661194
23
9.725017
33
-2158.6494
0
3DFACE
8
0
10
-94.66129
20
9.724916
30
-2158.6494
11
-32.128525
21
264.95804
31
-2193.6235
12
-138.26807
22
51.950146
32
-2111.3918
13
-138.26796
23
51.950245
33
-2111.3918
0
3DFACE
8
0
10
-32.128525
20
264.95804
30
-2193.6235
11
-94.66129
21
9.724916
31
-2158.6494
12
18.549618
22
215.88547
32
-2248.5444
13
18.549717
23
215.88557
33
-2248.5444
0
3DFACE
8
0
10
18.549618
20
215.88547
30
-2248.5444
11
-138.26807
21
51.950146
31
-2111.3918
12
-32.128525
22
264.95804
32
-2193.6235
13
-32.128426
23
264.95813
33
-2193.6235
0
3DFACE
8
0
10
-138.26807
20
51.950146
30
-2111.3918
11
18.549618
21
215.88547
31
-2248.5444
12
-94.66129
22
9.724916
32
-2158.6494
13
-94.661194
23
9.725017
33
-2158.6494
0
3DFACE
8
0
10
-94.66129
20
9.724916
30
-2158.6494
11
-289.25128
21
-144.20906
31
-2065.287
12
-138.26807
22
51.950146
32
-2111.3918
13
-138.26796
23
51.950245
33
-2111.3918
0
3DFACE
8
0
10
-289.25128
20
-144.20906
30
-2065.287
11
-94.66129
21
9.724916
31
-2158.6494
12
-238.57315
22
-193.28162
32
-2120.2083
13
-238.57304
23
-193.28151
33
-2120.2083
0
3DFACE
8
0
10
-238.57315
20
-193.28162
30
-2120.2083
11
-94.66129
21
9.724916
31
-2158.6494
12
-289.25128
22
-144.20906
32
-2065.287
13
-289.2512
23
-144.20895
33
-2065.287
0
3DFACE
8
0
10
-94.66129
20
9.724916
30
-2158.6494
11
-238.57315
21
-193.28162
31
-2120.2083
12
-34.686718
22
-34.181835
32
-2178.4753
13
-34.68662
23
-34.181736
33
-2178.4753
0
3DFACE
8
0
10
-34.686718
20
-34.181835
30
-2178.4753
11
18.549618
21
215.88547
31
-2248.5444
12
-94.66129
22
9.724916
32
-2158.6494
13
-94.661194
23
9.725017
33
-2158.6494
0
3DFACE
8
0
10
18.549618
20
215.88547
30
-2248.5444
11
-34.686718
21
-34.181835
31
-2178.4753
12
88.24979
22
164.8587
32
-2271.5854
13
88.249886
23
164.85881
33
-2271.5854
0
3DFACE
8
0
10
88.24979
20
164.8587
30
-2271.5854
11
-94.66129
21
9.724916
31
-2158.6494
12
18.549618
22
215.88547
32
-2248.5444
13
18.549717
23
215.88557
33
-2248.5444
0
3DFACE
8
0
10
-94.66129
20
9.724916
30
-2158.6494
11
88.24979
21
164.8587
31
-2271.5854
12
-34.686718
22
-34.181835
32
-2178.4753
13
-34.68662
23
-34.181736
33
-2178.4753
0
3DFACE
8
0
10
-34.686718
20
-34.181835
30
-2178.4753
11
-238.57315
21
-193.28162
31
-2120.2083
12
-94.66129
22
9.724916
32
-2158.6494
13
-94.661194
23
9.725017
33
-2158.6494
0
3DFACE
8
0
10
-238.57315
20
-193.28162
30
-2120.2083
11
-34.686718
21
-34.181835
31
-2178.4753
12
-168.87299
22
-244.30838
32
-2143.249
13
-168.87288
23
-244.30827
33
-2143.249
0
3DFACE
8
0
10
275.72498
20
366.25034
30
-2227.8958
11
88.24979
21
164.8587
31
-2271.5854
12
236.49823
22
388.84277
32
-2234.4565
13
236.49834
23
388.84286
33
-2234.4565
0
3DFACE
8
0
10
88.24979
20
164.8587
30
-2271.5854
11
275.72498
21
366.25034
31
-2227.8958
12
164.9202
22
120.700745
32
-2258.7617
13
164.9203
23
120.70084
33
-2258.7617
0
3DFACE
8
0
10
164.9202
20
120.700745
30
-2258.7617
11
275.72498
21
366.25034
31
-2227.8958
12
88.24979
22
164.8587
32
-2271.5854
13
88.249886
23
164.85881
33
-2271.5854
0
3DFACE
8
0
10
275.72498
20
366.25034
30
-2227.8958
11
164.9202
21
120.700745
31
-2258.7617
12
311.7352
22
351.07858
32
-2204.12
13
311.7353
23
351.07867
33
-2204.12
0
3DFACE
8
0
10
311.7352
20
351.07858
30
-2204.12
11
164.9202
21
120.700745
31
-2258.7617
12
275.72498
22
366.25034
32
-2227.8958
13
275.72507
23
366.25043
33
-2227.8958
0
3DFACE
8
0
10
164.9202
20
120.700745
30
-2258.7617
11
311.7352
21
351.07858
31
-2204.12
12
235.30386
22
91.04687
32
-2212.2913
13
235.30397
23
91.04697
33
-2212.2913
0
3DFACE
8
0
10
235.30386
20
91.04687
30
-2212.2913
11
311.7352
21
351.07858
31
-2204.12
12
164.9202
22
120.700745
32
-2258.7617
13
164.9203
23
120.70084
33
-2258.7617
0
3DFACE
8
0
10
311.7352
20
351.07858
30
-2204.12
11
235.30386
21
91.04687
31
-2212.2913
12
338.30246
22
345.95087
32
-2167.2407
13
338.30255
23
345.95096
33
-2167.2407
0
3DFACE
8
0
10
338.30246
20
345.95087
30
-2167.2407
11
235.30386
21
91.04687
31
-2212.2913
12
311.7352
22
351.07858
32
-2204.12
13
311.7353
23
351.07867
33
-2204.12
0
3DFACE
8
0
10
235.30386
20
91.04687
30
-2212.2913
11
338.30246
21
345.95087
31
-2167.2407
12
287.23077
22
81.024536
32
-2140.2087
13
287.23087
23
81.024635
33
-2140.2087
0
3DFACE
8
0
10
287.23077
20
81.024536
30
-2140.2087
11
338.30246
21
345.95087
31
-2167.2407
12
235.30386
22
91.04687
32
-2212.2913
13
235.30397
23
91.04697
33
-2212.2913
0
3DFACE
8
0
10
338.30246
20
345.95087
30
-2167.2407
11
287.23077
21
81.024536
31
-2140.2087
12
350.833
22
351.75385
32
-2123.6345
13
350.8331
23
351.75394
33
-2123.6345
0
3DFACE
8
0
10
350.833
20
351.75385
30
-2123.6345
11
287.23077
21
81.024536
31
-2140.2087
12
338.30246
22
345.95087
32
-2167.2407
13
338.30255
23
345.95096
33
-2167.2407
0
3DFACE
8
0
10
287.23077
20
81.024536
30
-2140.2087
11
350.833
21
351.75385
31
-2123.6345
12
311.7223
22
92.36669
32
-2054.9783
13
311.72238
23
92.36679
33
-2054.9783
0
3DFACE
8
0
10
311.7223
20
92.36669
30
-2054.9783
11
350.833
21
351.75385
31
-2123.6345
12
287.23077
22
81.024536
32
-2140.2087
13
287.23087
23
81.024635
33
-2140.2087
0
3DFACE
8
0
10
350.833
20
351.75385
30
-2123.6345
11
311.7223
21
92.36669
31
-2054.9783
12
347.16022
22
367.48404
32
-2080.841
13
347.1603
23
367.48413
33
-2080.841
0
3DFACE
8
0
10
347.16022
20
367.48404
30
-2080.841
11
311.7223
21
92.36669
31
-2054.9783
12
350.833
22
351.75385
32
-2123.6345
13
350.8331
23
351.75394
33
-2123.6345
0
3DFACE
8
0
10
311.7223
20
92.36669
30
-2054.9783
11
347.16022
21
367.48404
31
-2080.841
12
304.54364
22
123.1121
32
-1971.3369
13
304.54373
23
123.1122
33
-1971.3368
0
3DFACE
8
0
10
304.54364
20
123.1121
30
-1971.3369
11
347.16022
21
367.48404
31
-2080.841
12
311.7223
22
92.36669
32
-2054.9783
13
311.72238
23
92.36679
33
-2054.9783
0
3DFACE
8
0
10
347.16022
20
367.48404
30
-2080.841
11
304.54364
21
123.1121
31
-1971.3369
12
327.9192
22
390.42163
32
-2046.2601
13
327.91928
23
390.42172
33
-2046.26
0
3DFACE
8
0
10
327.9192
20
390.42163
30
-2046.2601
11
304.54364
21
123.1121
31
-1971.3369
12
347.16022
22
367.48404
32
-2080.841
13
347.1603
23
367.48413
33
-2080.841
0
3DFACE
8
0
10
304.54364
20
123.1121
30
-1971.3369
11
327.9192
21
390.42163
31
-2046.2601
12
266.93616
22
167.94464
32
-1903.7468
13
266.93625
23
167.94475
33
-1903.7467
0
3DFACE
8
0
10
266.93616
20
167.94464
30
-1903.7468
11
327.9192
21
390.42163
31
-2046.2601
12
304.54364
22
123.1121
32
-1971.3369
13
304.54373
23
123.1122
33
-1971.3368
0
3DFACE
8
0
10
327.9192
20
390.42163
30
-2046.2601
11
266.93616
21
167.94464
31
-1903.7468
12
296.4368
22
416.60046
32
-2025.8708
13
296.4369
23
416.60056
33
-2025.8707
0
3DFACE
8
0
10
296.4368
20
416.60046
30
-2025.8708
11
266.93616
21
167.94464
31
-1903.7468
12
327.9192
22
390.42163
32
-2046.2601
13
327.91928
23
390.42172
33
-2046.26
0
3DFACE
8
0
10
266.93616
20
167.94464
30
-1903.7468
11
296.4368
21
416.60046
31
-2025.8708
12
205.40245
22
219.11238
32
-1863.8949
13
205.40256
23
219.11249
33
-1863.8948
0
3DFACE
8
0
10
205.40245
20
219.11238
30
-1863.8949
11
296.4368
21
416.60046
31
-2025.8708
12
266.93616
22
167.94464
32
-1903.7468
13
266.93625
23
167.94475
33
-1903.7467
0
3DFACE
8
0
10
296.4368
20
416.60046
30
-2025.8708
11
205.40245
21
219.11238
31
-1863.8949
12
258.1567
22
441.49402
32
-2023.1986
13
258.1568
23
441.4941
33
-2023.1985
0
3DFACE
8
0
10
258.1567
20
441.49402
30
-2023.1986
11
205.40245
21
219.11238
31
-1863.8949
12
296.4368
22
416.60046
32
-2025.8708
13
296.4369
23
416.60056
33
-2025.8707
0
3DFACE
8
0
10
205.40245
20
219.11238
30
-1863.8949
11
258.1567
21
441.49402
31
-2023.1986
12
130.58226
22
267.76797
32
-1858.672
13
130.58237
23
267.76807
33
-1858.6719
0
3DFACE
8
0
10
130.58226
20
267.76797
30
-1858.672
11
258.1567
21
441.49402
31
-2023.1986
12
205.40245
22
219.11238
32
-1863.8949
13
205.40256
23
219.11249
33
-1863.8948
0
3DFACE
8
0
10
258.1567
20
441.49402
30
-2023.1986
11
130.58226
21
267.76797
31
-1858.672
12
219.69785
22
460.79794
32
-2038.7057
13
219.69795
23
460.79803
33
-2038.7056
0
3DFACE
8
0
10
219.69785
20
460.79794
30
-2038.7057
11
130.58226
21
267.76797
31
-1858.672
12
258.1567
22
441.49402
32
-2023.1986
13
258.1568
23
441.4941
33
-2023.1985
0
3DFACE
8
0
10
130.58226
20
267.76797
30
-1858.672
11
219.69785
21
460.79794
31
-2038.7057
12
55.412643
22
305.4984
32
-1888.9812
13
55.412743
23
305.4985
33
-1888.9811
0
3DFACE
8
0
10
55.412643
20
305.4984
30
-1888.9812
11
219.69785
21
460.79794
31
-2038.7057
12
130.58226
22
267.76797
32
-1858.672
13
130.58237
23
267.76807
33
-1858.6719
0
3DFACE
8
0
10
219.69785
20
460.79794
30
-2038.7057
11
55.412643
21
305.4984
31
-1888.9812
12
187.71005
22
471.1745
32
-2069.7107
13
187.71016
23
471.1746
33
-2069.7107
0
3DFACE
8
0
10
187.71005
20
471.1745
30
-2069.7107
11
55.412643
21
305.4984
31
-1888.9812
12
219.69785
22
460.79794
32
-2038.7057
13
219.69795
23
460.79803
33
-2038.7056
0
3DFACE
8
0
10
55.412643
20
305.4984
30
-1888.9812
11
187.71005
21
471.1745
31
-2069.7107
12
-7.108902
22
325.77982
32
-1949.5817
13
-7.108802
23
325.7799
33
-1949.5815
0
3DFACE
8
0
10
-7.108902
20
325.77982
30
-1949.5817
11
187.71005
21
471.1745
31
-2069.7107
12
55.412643
22
305.4984
32
-1888.9812
13
55.412743
23
305.4985
33
-1888.9811
0
3DFACE
8
0
10
187.71005
20
471.1745
30
-2069.7107
11
-7.108902
21
325.77982
31
-1949.5817
12
167.72433
22
470.8294
32
-2110.8523
13
167.72444
23
470.8295
33
-2110.8523
0
3DFACE
8
0
10
167.72433
20
470.8294
30
-2110.8523
11
-7.108902
21
325.77982
31
-1949.5817
12
187.71005
22
471.1745
32
-2069.7107
13
187.71016
23
471.1746
33
-2069.7107
0
3DFACE
8
0
10
-7.108902
20
325.77982
30
-1949.5817
11
167.72433
21
470.8294
31
-2110.8523
12
-46.17189
22
325.10532
32
-2029.9952
13
-46.17179
23
325.1054
33
-2029.9951
0
3DFACE
8
0
10
-46.17189
20
325.10532
30
-2029.9952
11
167.72433
21
470.8294
31
-2110.8523
12
-7.108902
22
325.77982
32
-1949.5817
13
-7.108802
23
325.7799
33
-1949.5815
0
3DFACE
8
0
10
167.72433
20
470.8294
30
-2110.8523
11
-46.17189
21
325.10532
31
-2029.9952
12
163.1964
22
459.82236
32
-2155.0173
13
163.1965
23
459.82245
33
-2155.0173
0
3DFACE
8
0
10
163.1964
20
459.82236
30
-2155.0173
11
-46.17189
21
325.10532
31
-2029.9952
12
167.72433
22
470.8294
32
-2110.8523
13
167.72444
23
470.8295
33
-2110.8523
0
3DFACE
8
0
10
-46.17189
20
325.10532
30
-2029.9952
11
163.1964
21
459.82236
31
-2155.0173
12
-55.021973
22
303.59155
32
-2116.3174
13
-55.021873
23
303.59164
33
-2116.3174
0
3DFACE
8
0
10
-55.021973
20
303.59155
30
-2116.3174
11
163.1964
21
459.82236
31
-2155.0173
12
-46.17189
22
325.10532
32
-2029.9952
13
-46.17179
23
325.1054
33
-2029.9951
0
3DFACE
8
0
10
163.1964
20
459.82236
30
-2155.0173
11
-55.021973
21
303.59155
31
-2116.3174
12
174.90913
22
440.05658
32
-2194.5688
13
174.90924
23
440.05667
33
-2194.5688
0
3DFACE
8
0
10
174.90913
20
440.05658
30
-2194.5688
11
-55.021973
21
303.59155
31
-2116.3174
12
163.1964
22
459.82236
32
-2155.0173
13
163.1965
23
459.82245
33
-2155.0173
0
3DFACE
8
0
10
-55.021973
20
303.59155
30
-2116.3174
11
174.90913
21
440.05658
31
-2194.5688
12
-32.12889
22
264.95847
32
-2193.6228
13
-32.12879
23
264.95856
33
-2193.6228
0
3DFACE
8
0
10
-32.12889
20
264.95847
30
-2193.6228
11
174.90913
21
440.05658
31
-2194.5688
12
-55.021973
22
303.59155
32
-2116.3174
13
-55.021873
23
303.59164
33
-2116.3174
0
3DFACE
8
0
10
174.90913
20
440.05658
30
-2194.5688
11
-32.12889
21
264.95847
31
-2193.6228
12
200.83733
22
414.94977
32
-2222.6682
13
200.83743
23
414.94986
33
-2222.6682
0
3DFACE
8
0
10
200.83733
20
414.94977
30
-2222.6682
11
-32.12889
21
264.95847
31
-2193.6228
12
174.90913
22
440.05658
32
-2194.5688
13
174.90924
23
440.05667
33
-2194.5688
0
3DFACE
8
0
10
-32.12889
20
264.95847
30
-2193.6228
11
200.83733
21
414.94977
31
-2222.6682
12
18.548937
22
215.88603
32
-2248.5442
13
18.549036
23
215.88614
33
-2248.5442
0
3DFACE
8
0
10
18.548937
20
215.88603
30
-2248.5442
11
200.83733
21
414.94977
31
-2222.6682
12
-32.12889
22
264.95847
32
-2193.6228
13
-32.12879
23
264.95856
33
-2193.6228
0
3DFACE
8
0
10
200.83733
20
414.94977
30
-2222.6682
11
18.548937
21
215.88603
31
-2248.5442
12
236.49777
22
388.84305
32
-2234.4565
13
236.49788
23
388.84314
33
-2234.4565
0
3DFACE
8
0
10
236.49777
20
388.84305
30
-2234.4565
11
18.548937
21
215.88603
31
-2248.5442
12
200.83733
22
414.94977
32
-2222.6682
13
200.83743
23
414.94986
33
-2222.6682
0
3DFACE
8
0
10
18.548937
20
215.88603
30
-2248.5442
11
236.49777
21
388.84305
31
-2234.4565
12
88.24887
22
164.8593
32
-2271.5852
13
88.24897
23
164.8594
33
-2271.5852
0
3DFACE
8
0
10
88.24887
20
164.8593
30
-2271.5852
11
236.49777
21
388.84305
31
-2234.4565
12
18.548937
22
215.88603
32
-2248.5442
13
18.549036
23
215.88614
33
-2248.5442
0
3DFACE
8
0
10
236.49777
20
388.84305
30
-2234.4565
11
88.24887
21
164.8593
31
-2271.5852
12
275.72446
22
366.25058
32
-2227.896
13
275.72455
23
366.25067
33
-2227.896
0
3DFACE
8
0
10
275.72446
20
366.25058
30
-2227.896
11
88.24887
21
164.8593
31
-2271.5852
12
236.49777
22
388.84305
32
-2234.4565
13
236.49788
23
388.84314
33
-2234.4565
0
3DFACE
8
0
10
88.24887
20
164.8593
30
-2271.5852
11
275.72446
21
366.25058
31
-2227.896
12
164.9192
22
120.70124
32
-2258.7622
13
164.91931
23
120.70134
33
-2258.7622
0
3DFACE
8
0
10
-200.02844
20
-469.89584
30
-1950.893
11
-92.20356
21
-288.46585
31
-2130.426
12
-237.67557
22
-454.03433
32
-1975.749
13
-237.67546
23
-454.03424
33
-1975.7489
0
3DFACE
8
0
10
-92.20356
20
-288.46585
30
-2130.426
11
-200.02844
21
-469.89584
31
-1950.893
12
-21.81984
22
-318.1199
32
-2083.9558
13
-21.81974
23
-318.1198
33
-2083.9558
0
3DFACE
8
0
10
-21.81984
20
-318.1199
30
-2083.9558
11
-200.02844
21
-469.89584
31
-1950.893
12
-92.20356
22
-288.46585
32
-2130.426
13
-92.20346
23
-288.46576
33
-2130.426
0
3DFACE
8
0
10
-200.02844
20
-469.89584
30
-1950.893
11
-21.81984
21
-318.1199
31
-2083.9558
12
-172.25345
22
-475.25677
32
-1912.3374
13
-172.25334
23
-475.25668
33
-1912.3373
0
3DFACE
8
0
10
-172.25345
20
-475.25677
30
-1912.3374
11
-21.81984
21
-318.1199
31
-2083.9558
12
-200.02844
22
-469.89584
32
-1950.893
13
-200.02834
23
-469.89575
33
-1950.8928
0
3DFACE
8
0
10
-21.81984
20
-318.1199
30
-2083.9558
11
-172.25345
21
-475.25677
31
-1912.3374
12
30.107384
22
-328.14255
32
-2011.8739
13
30.107483
23
-328.14246
33
-2011.8738
0
3DFACE
8
0
10
30.107384
20
-328.14255
30
-2011.8739
11
-172.25345
21
-475.25677
31
-1912.3374
12
-21.81984
22
-318.1199
32
-2083.9558
13
-21.81974
23
-318.1198
33
-2083.9558
0
3DFACE
8
0
10
-172.25345
20
-475.25677
30
-1912.3374
11
30.107384
21
-328.14255
31
-2011.8739
12
-159.15308
22
-469.19025
32
-1866.7491
13
-159.15297
23
-469.19016
33
-1866.749
0
3DFACE
8
0
10
-159.15308
20
-469.19025
30
-1866.7491
11
30.107384
21
-328.14255
31
-2011.8739
12
-172.25345
22
-475.25677
32
-1912.3374
13
-172.25334
23
-475.25668
33
-1912.3373
0
3DFACE
8
0
10
30.107384
20
-328.14255
30
-2011.8739
11
-159.15308
21
-469.19025
31
-1866.7491
12
54.59935
22
-316.80075
32
-1926.6436
13
54.59945
23
-316.80066
33
-1926.6434
0
3DFACE
8
0
10
54.59935
20
-316.80075
30
-1926.6436
11
-159.15308
21
-469.19025
31
-1866.7491
12
30.107384
22
-328.14255
32
-2011.8739
13
30.107483
23
-328.14246
33
-2011.8738
0
3DFACE
8
0
10
-159.15308
20
-469.19025
30
-1866.7491
11
54.59935
21
-316.80075
31
-1926.6436
12
-162.99252
22
-452.74515
32
-1822.0106
13
-162.99242
23
-452.74506
33
-1822.0105
0
3DFACE
8
0
10
-162.99252
20
-452.74515
30
-1822.0106
11
54.59935
21
-316.80075
31
-1926.6436
12
-159.15308
22
-469.19025
32
-1866.7491
13
-159.15297
23
-469.19016
33
-1866.749
0
3DFACE
8
0
10
54.59935
20
-316.80075
30
-1926.6436
11
-162.99252
21
-452.74515
31
-1822.0106
12
47.421257
22
-286.05563
32
-1843.002
13
47.421356
23
-286.05554
33
-1843.0018
0
3DFACE
8
0
10
47.421257
20
-286.05563
30
-1843.002
11
-162.99252
21
-452.74515
31
-1822.0106
12
54.59935
22
-316.80075
32
-1926.6436
13
54.59945
23
-316.80066
33
-1926.6434
0
3DFACE
8
0
10
-162.99252
20
-452.74515
30
-1822.0106
11
47.421257
21
-286.05563
31
-1843.002
12
-183.10791
22
-428.76505
32
-1785.8575
13
-183.1078
23
-428.76495
33
-1785.8574
0
3DFACE
8
0
10
-183.10791
20
-428.76505
30
-1785.8575
11
47.421257
21
-286.05563
31
-1843.002
12
-162.99252
22
-452.74515
32
-1822.0106
13
-162.99242
23
-452.74506
33
-1822.0105
0
3DFACE
8
0
10
47.421257
20
-286.05563
30
-1843.002
11
-183.10791
21
-428.76505
31
-1785.8575
12
9.814226
22
-241.22325
32
-1775.4115
13
9.814326
23
-241.22314
33
-1775.4114
0
3DFACE
8
0
10
9.814226
20
-241.22325
30
-1775.4115
11
-183.10791
21
-428.76505
31
-1785.8575
12
47.421257
22
-286.05563
32
-1843.002
13
47.421356
23
-286.05554
33
-1843.0018
0
3DFACE
8
0
10
-183.10791
20
-428.76505
30
-1785.8575
11
9.814226
21
-241.22325
31
-1775.4115
12
-216.02112
22
-401.39627
32
-1764.5411
13
-216.02101
23
-401.39618
33
-1764.541
0
3DFACE
8
0
10
-216.02112
20
-401.39627
30
-1764.5411
11
9.814226
21
-241.22325
31
-1775.4115
12
-183.10791
22
-428.76505
32
-1785.8575
13
-183.1078
23
-428.76495
33
-1785.8574
0
3DFACE
8
0
10
9.814226
20
-241.22325
30
-1775.4115
11
-216.02112
21
-401.39627
31
-1764.5411
12
-51.719154
22
-190.05556
32
-1735.5591
13
-51.719055
23
-190.05545
33
-1735.559
0
3DFACE
8
0
10
-51.719154
20
-190.05556
30
-1735.5591
11
-216.02112
21
-401.39627
31
-1764.5411
12
9.814226
22
-241.22325
32
-1775.4115
13
9.814326
23
-241.22314
33
-1775.4114
0
3DFACE
8
0
10
-216.02112
20
-401.39627
30
-1764.5411
11
-51.719154
21
-190.05556
31
-1735.5591
12
-256.04114
22
-375.37115
32
-1761.7472
13
-256.04105
23
-375.37106
33
-1761.7471
0
3DFACE
8
0
10
-256.04114
20
-375.37115
30
-1761.7472
11
-51.719154
21
-190.05556
31
-1735.5591
12
-216.02112
22
-401.39627
32
-1764.5411
13
-216.02101
23
-401.39618
33
-1764.541
0
3DFACE
8
0
10
-51.719154
20
-190.05556
30
-1735.5591
11
-256.04114
21
-375.37115
31
-1761.7472
12
-126.53922
22
-141.39986
32
-1730.3356
13
-126.53912
23
-141.39975
33
-1730.3354
0
3DFACE
8
0
10
-126.53922
20
-141.39986
30
-1730.3356
11
-256.04114
21
-375.37115
31
-1761.7472
12
-51.719154
22
-190.05556
32
-1735.5591
13
-51.719055
23
-190.05545
33
-1735.559
0
3DFACE
8
0
10
-256.04114
20
-375.37115
30
-1761.7472
11
-126.53922
21
-141.39986
31
-1730.3356
12
-296.2482
22
-355.1896
32
-1777.9587
13
-296.2481
23
-355.1895
33
-1777.9586
0
3DFACE
8
0
10
-296.2482
20
-355.1896
30
-1777.9587
11
-126.53922
21
-141.39986
31
-1730.3356
12
-256.04114
22
-375.37115
32
-1761.7472
13
-256.04105
23
-375.37106
33
-1761.7471
0
3DFACE
8
0
10
-126.53922
20
-141.39986
30
-1730.3356
11
-296.2482
21
-355.1896
31
-1777.9587
12
-201.70894
22
-103.669174
32
-1760.6442
13
-201.70883
23
-103.669075
33
-1760.644
0
3DFACE
8
0
10
-201.70894
20
-103.669174
30
-1760.6442
11
-296.2482
21
-355.1896
31
-1777.9587
12
-126.53922
22
-141.39986
32
-1730.3356
13
-126.53912
23
-141.39975
33
-1730.3354
0
3DFACE
8
0
10
-296.2482
20
-355.1896
30
-1777.9587
11
-201.70894
21
-103.669174
31
-1760.6442
12
-329.69012
22
-344.34128
32
-1810.3728
13
-329.69003
23
-344.3412
33
-1810.3727
0
3DFACE
8
0
10
-329.69012
20
-344.34128
30
-1810.3728
11
-201.70894
21
-103.669174
31
-1760.6442
12
-296.2482
22
-355.1896
32
-1777.9587
13
-296.2481
23
-355.1895
33
-1777.9586
0
3DFACE
8
0
10
-201.70894
20
-103.669174
30
-1760.6442
11
-329.69012
21
-344.34128
31
-1810.3728
12
-264.2308
22
-83.38745
32
-1821.2443
13
-264.2307
23
-83.38735
33
-1821.2441
0
3DFACE
8
0
10
-264.2308
20
-83.38745
30
-1821.2443
11
-329.69012
21
-344.34128
31
-1810.3728
12
-201.70894
22
-103.669174
32
-1760.6442
13
-201.70883
23
-103.669075
33
-1760.644
0
3DFACE
8
0
10
-329.69012
20
-344.34128
30
-1810.3728
11
-264.2308
21
-83.38745
31
-1821.2443
12
-350.58453
22
-344.70184
32
-1853.3845
13
-350.58444
23
-344.70175
33
-1853.3844
0
3DFACE
8
0
10
-350.58453
20
-344.70184
30
-1853.3845
11
-264.2308
21
-83.38745
31
-1821.2443
12
-329.69012
22
-344.34128
32
-1810.3728
13
-329.69003
23
-344.3412
33
-1810.3727
0
3DFACE
8
0
10
-264.2308
20
-83.38745
30
-1821.2443
11
-350.58453
21
-344.70184
31
-1853.3845
12
-303.29425
22
-84.06159
32
-1901.6576
13
-303.29416
23
-84.06149
33
-1901.6575
0
3DFACE
8
0
10
-303.29425
20
-84.06159
30
-1901.6576
11
-350.58453
21
-344.70184
31
-1853.3845
12
-264.2308
22
-83.38745
32
-1821.2443
13
-264.2307
23
-83.38735
33
-1821.2441
0
3DFACE
8
0
10
-350.58453
20
-344.70184
30
-1853.3845
11
-303.29425
21
-84.06159
31
-1901.6576
12
-355.31857
22
-356.209
32
-1899.5569
13
-355.31848
23
-356.20892
33
-1899.5568
0
3DFACE
8
0
10
-355.31857
20
-356.209
30
-1899.5569
11
-303.29425
21
-84.06159
31
-1901.6576
12
-350.58453
22
-344.70184
32
-1853.3845
13
-350.58444
23
-344.70175
33
-1853.3844
0
3DFACE
8
0
10
-303.29425
20
-84.06159
30
-1901.6576
11
-355.31857
21
-356.209
31
-1899.5569
12
-312.14487
22
-105.57501
32
-1987.9799
13
-312.14478
23
-105.57491
33
-1987.9797
0
3DFACE
8
0
10
-312.14487
20
-105.57501
30
-1987.9799
11
-355.31857
21
-356.209
31
-1899.5569
12
-303.29425
22
-84.06159
32
-1901.6576
13
-303.29416
23
-84.06149
33
-1901.6575
0
3DFACE
8
0
10
-355.31857
20
-356.209
30
-1899.5569
11
-312.14487
21
-105.57501
31
-1987.9799
12
-343.07373
22
-376.8731
32
-1940.9064
13
-343.07364
23
-376.87302
33
-1940.9062
0
3DFACE
8
0
10
-343.07373
20
-376.8731
30
-1940.9064
11
-312.14487
21
-105.57501
31
-1987.9799
12
-355.31857
22
-356.209
32
-1899.5569
13
-355.31848
23
-356.20892
33
-1899.5568
0
3DFACE
8
0
10
-312.14487
20
-105.57501
30
-1987.9799
11
-343.07373
21
-376.8731
31
-1940.9064
12
-289.2523
22
-144.20786
32
-2065.2854
13
-289.2522
23
-144.20775
33
-2065.2854
0
3DFACE
8
0
10
-289.2523
20
-144.20786
30
-2065.2854
11
-343.07373
21
-376.8731
31
-1940.9064
12
-312.14487
22
-105.57501
32
-1987.9799
13
-312.14478
23
-105.57491
33
-1987.9797
0
3DFACE
8
0
10
-343.07373
20
-376.8731
30
-1940.9064
11
-289.2523
21
-144.20786
31
-2065.2854
12
-315.9672
22
-403.1211
32
-1970.2832
13
-315.9671
23
-403.121
33
-1970.2831
0
3DFACE
8
0
10
-315.9672
20
-403.1211
30
-1970.2832
11
-289.2523
21
-144.20786
31
-2065.2854
12
-343.07373
22
-376.8731
32
-1940.9064
13
-343.07364
23
-376.87302
33
-1940.9062
0
3DFACE
8
0
10
-289.2523
20
-144.20786
30
-2065.2854
11
-315.9672
21
-403.1211
31
-1970.2832
12
-238.57487
22
-193.2802
32
-2120.2073
13
-238.57477
23
-193.28009
33
-2120.2073
0
3DFACE
8
0
10
-238.57487
20
-193.2802
30
-2120.2073
11
-315.9672
21
-403.1211
31
-1970.2832
12
-289.2523
22
-144.20786
32
-2065.2854
13
-289.2522
23
-144.20775
33
-2065.2854
0
3DFACE
8
0
10
-315.9672
20
-403.1211
30
-1970.2832
11
-238.57487
21
-193.2802
31
-2120.2073
12
-278.68594
22
-430.41446
32
-1982.6078
13
-278.68585
23
-430.41437
33
-1982.6077
0
3DFACE
8
0
10
-278.68594
20
-430.41446
30
-1982.6078
11
-238.57487
21
-193.2802
31
-2120.2073
12
-315.9672
22
-403.1211
32
-1970.2832
13
-315.9671
23
-403.121
33
-1970.2831
0
3DFACE
8
0
10
-238.57487
20
-193.2802
30
-2120.2073
11
-278.68594
21
-430.41446
31
-1982.6078
12
-168.87515
22
-244.30695
32
-2143.249
13
-168.87505
23
-244.30684
33
-2143.249
0
3DFACE
8
0
10
-168.87515
20
-244.30695
30
-2143.249
11
-278.68594
21
-430.41446
31
-1982.6078
12
-238.57487
22
-193.2802
32
-2120.2073
13
-238.57477
23
-193.28009
33
-2120.2073
0
3DFACE
8
0
10
-278.68594
20
-430.41446
30
-1982.6078
11
-168.87515
21
-244.30695
31
-2143.249
12
-237.67624
22
-454.034
32
-1975.7493
13
-237.67613
23
-454.0339
33
-1975.7491
0
3DFACE
8
0
10
-237.67624
20
-454.034
30
-1975.7493
11
-168.87515
21
-244.30695
31
-2143.249
12
-278.68594
22
-430.41446
32
-1982.6078
13
-278.68585
23
-430.41437
33
-1982.6077
0
3DFACE
8
0
10
-168.87515
20
-244.30695
30
-2143.249
11
-237.67624
21
-454.034
31
-1975.7493
12
-92.20483
22
-288.4652
32
-2130.4265
13
-92.20473
23
-288.46512
33
-2130.4265
0
3DFACE
8
0
10
-92.20483
20
-288.4652
30
-2130.4265
11
-237.67624
21
-454.034
31
-1975.7493
12
-168.87515
22
-244.30695
32
-2143.249
13
-168.87505
23
-244.30684
33
-2143.249
0
3DFACE
8
0
10
-237.67624
20
-454.034
30
-1975.7493
11
-92.20483
21
-288.4652
31
-2130.4265
12
-200.029
22
-469.89566
32
-1950.8934
13
-200.0289
23
-469.89557
33
-1950.8933
0
3DFACE
8
0
10
-200.029
20
-469.89566
30
-1950.8934
11
-92.20483
21
-288.4652
31
-2130.4265
12
-237.67624
22
-454.034
32
-1975.7493
13
-237.67613
23
-454.0339
33
-1975.7491
0
3DFACE
8
0
10
-92.20483
20
-288.4652
30
-2130.4265
11
-200.029
21
-469.89566
31
-1950.8934
12
-21.820877
22
-318.11957
32
-2083.957
13
-21.820778
23
-318.11948
33
-2083.957
0
3DFACE
8
0
10
30.0
20
60.0
30
0.0
11
230.0
21
60.0
31
0.0
12
230.0
22
80.0
32
0.0
13
230.0001
23
80.0001
33
1.0E-4
0
3DFACE
8
0
10
230.0
20
80.0
30
0.0
11
30.0
21
80.0
31
0.0
12
30.0
22
60.0
32
0.0
13
30.0001
23
60.0001
33
1.0E-4
0
3DFACE
8
0
10
30.0
20
60.0
30
0.0
11
92.5
21
60.0
31
0.0
12
92.5
22
80.0
32
0.0
13
92.5001
23
80.0001
33
1.0E-4
0
3DFACE
8
0
10
92.5
20
80.0
30
0.0
11
30.0
21
80.0
31
0.0
12
30.0
22
60.0
32
0.0
13
30.0001
23
60.0001
33
1.0E-4
0
3DFACE
8
0
10
35.0
20
65.0
30
0.0
11
41.0
21
65.0
31
0.0
12
41.0
22
76.0
32
0.0
13
41.0001
23
76.0001
33
1.0E-4
0
3DFACE
8
0
10
41.0
20
76.0
30
0.0
11
35.0
21
76.0
31
0.0
12
35.0
22
65.0
32
0.0
13
35.0001
23
65.0001
33
1.0E-4
0
3DFACE
8
0
10
43.0
20
65.0
30
0.0
11
49.0
21
65.0
31
0.0
12
49.0
22
76.0
32
0.0
13
49.0001
23
76.0001
33
1.0E-4
0
3DFACE
8
0
10
49.0
20
76.0
30
0.0
11
43.0
21
76.0
31
0.0
12
43.0
22
65.0
32
0.0
13
43.0001
23
65.0001
33
1.0E-4
0
3DFACE
8
0
10
51.0
20
65.0
30
0.0
11
57.0
21
65.0
31
0.0
12
57.0
22
76.0
32
0.0
13
57.0001
23
76.0001
33
1.0E-4
0
3DFACE
8
0
10
57.0
20
76.0
30
0.0
11
51.0
21
76.0
31
0.0
12
51.0
22
65.0
32
0.0
13
51.0001
23
65.0001
33
1.0E-4
0
3DFACE
8
0
10
59.0
20
74.0
30
0.0
11
61.0
21
74.0
31
0.0
12
61.0
22
76.0
32
0.0
13
61.0001
23
76.0001
33
1.0E-4
0
3DFACE
8
0
10
61.0
20
76.0
30
0.0
11
59.0
21
76.0
31
0.0
12
59.0
22
74.0
32
0.0
13
59.0001
23
74.0001
33
1.0E-4
0
3DFACE
8
0
10
62.0
20
65.0
30
0.0
11
68.0
21
65.0
31
0.0
12
68.0
22
76.0
32
0.0
13
68.0001
23
76.0001
33
1.0E-4
0
3DFACE
8
0
10
68.0
20
76.0
30
0.0
11
62.0
21
76.0
31
0.0
12
62.0
22
65.0
32
0.0
13
62.0001
23
65.0001
33
1.0E-4
0
3DFACE
8
0
10
70.0
20
65.0
30
0.0
11
76.0
21
65.0
31
0.0
12
76.0
22
76.0
32
0.0
13
76.0001
23
76.0001
33
1.0E-4
0
3DFACE
8
0
10
76.0
20
76.0
30
0.0
11
70.0
21
76.0
31
0.0
12
70.0
22
65.0
32
0.0
13
70.0001
23
65.0001
33
1.0E-4
0
3DFACE
8
0
10
234.0
20
64.0
30
0.0
11
248.0
21
64.0
31
0.0
12
248.0
22
78.0
32
0.0
13
248.0001
23
78.0001
33
1.0E-4
0
3DFACE
8
0
10
248.0
20
78.0
30
0.0
11
234.0
21
78.0
31
0.0
12
234.0
22
64.0
32
0.0
13
234.0001
23
64.0001
33
1.0E-4
0
3DFACE
8
0
10
248.0
20
65.0
30
0.0
11
262.0
21
65.0
31
0.0
12
262.0
22
77.0
32
0.0
13
262.0001
23
77.0001
33
1.0E-4
0
3DFACE
8
0
10
262.0
20
77.0
30
0.0
11
248.0
21
77.0
31
0.0
12
248.0
22
65.0
32
0.0
13
248.0001
23
65.0001
33
1.0E-4
0
3DFACE
8
0
10
30.0
20
90.0
30
0.0
11
230.0
21
90.0
31
0.0
12
230.0
22
110.0
32
0.0
13
230.0001
23
110.0001
33
1.0E-4
0
3DFACE
8
0
10
230.0
20
110.0
30
0.0
11
30.0
21
110.0
31
0.0
12
30.0
22
90.0
32
0.0
13
30.0001
23
90.0001
33
1.0E-4
0
3DFACE
8
0
10
30.0
20
90.0
30
0.0
11
92.0
21
90.0
31
0.0
12
92.0
22
110.0
32
0.0
13
92.0001
23
110.0001
33
1.0E-4
0
3DFACE
8
0
10
92.0
20
110.0
30
0.0
11
30.0
21
110.0
31
0.0
12
30.0
22
90.0
32
0.0
13
30.0001
23
90.0001
33
1.0E-4
0
3DFACE
8
0
10
35.0
20
95.0
30
0.0
11
39.0
21
95.0
31
0.0
12
39.0
22
106.0
32
0.0
13
39.0001
23
106.0001
33
1.0E-4
0
3DFACE
8
0
10
39.0
20
106.0
30
0.0
11
35.0
21
106.0
31
0.0
12
35.0
22
95.0
32
0.0
13
35.0001
23
95.0001
33
1.0E-4
0
3DFACE
8
0
10
43.0
20
95.0
30
0.0
11
49.0
21
95.0
31
0.0
12
49.0
22
106.0
32
0.0
13
49.0001
23
106.0001
33
1.0E-4
0
3DFACE
8
0
10
49.0
20
106.0
30
0.0
11
43.0
21
106.0
31
0.0
12
43.0
22
95.0
32
0.0
13
43.0001
23
95.0001
33
1.0E-4
0
3DFACE
8
0
10
234.0
20
95.0
30
0.0
11
248.0
21
95.0
31
0.0
12
248.0
22
107.0
32
0.0
13
248.0001
23
107.0001
33
1.0E-4
0
3DFACE
8
0
10
248.0
20
107.0
30
0.0
11
234.0
21
107.0
31
0.0
12
234.0
22
95.0
32
0.0
13
234.0001
23
95.0001
33
1.0E-4
0
3DFACE
8
0
10
248.0
20
95.0
30
0.0
11
262.0
21
95.0
31
0.0
12
262.0
22
107.0
32
0.0
13
262.0001
23
107.0001
33
1.0E-4
0
3DFACE
8
0
10
262.0
20
107.0
30
0.0
11
248.0
21
107.0
31
0.0
12
248.0
22
95.0
32
0.0
13
248.0001
23
95.0001
33
1.0E-4
0
3DFACE
8
0
10
30.0
20
120.0
30
0.0
11
230.0
21
120.0
31
0.0
12
230.0
22
140.0
32
0.0
13
230.0001
23
140.0001
33
1.0E-4
0
3DFACE
8
0
10
230.0
20
140.0
30
0.0
11
30.0
21
140.0
31
0.0
12
30.0
22
120.0
32
0.0
13
30.0001
23
120.0001
33
1.0E-4
0
3DFACE
8
0
10
30.0
20
120.0
30
0.0
11
67.0
21
120.0
31
0.0
12
67.0
22
140.0
32
0.0
13
67.0001
23
140.0001
33
1.0E-4
0
3DFACE
8
0
10
67.0
20
140.0
30
0.0
11
30.0
21
140.0
31
0.0
12
30.0
22
120.0
32
0.0
13
30.0001
23
120.0001
33
1.0E-4
0
3DFACE
8
0
10
35.0
20
125.0
30
0.0
11
39.0
21
125.0
31
0.0
12
39.0
22
136.0
32
0.0
13
39.0001
23
136.0001
33
1.0E-4
0
3DFACE
8
0
10
39.0
20
136.0
30
0.0
11
35.0
21
136.0
31
0.0
12
35.0
22
125.0
32
0.0
13
35.0001
23
125.0001
33
1.0E-4
0
3DFACE
8
0
10
43.0
20
125.0
30
0.0
11
49.0
21
125.0
31
0.0
12
49.0
22
136.0
32
0.0
13
49.0001
23
136.0001
33
1.0E-4
0
3DFACE
8
0
10
49.0
20
136.0
30
0.0
11
43.0
21
136.0
31
0.0
12
43.0
22
125.0
32
0.0
13
43.0001
23
125.0001
33
1.0E-4
0
3DFACE
8
0
10
51.0
20
125.0
30
0.0
11
57.0
21
125.0
31
0.0
12
57.0
22
136.0
32
0.0
13
57.0001
23
136.0001
33
1.0E-4
0
3DFACE
8
0
10
57.0
20
136.0
30
0.0
11
51.0
21
136.0
31
0.0
12
51.0
22
125.0
32
0.0
13
51.0001
23
125.0001
33
1.0E-4
0
3DFACE
8
0
10
59.0
20
134.0
30
0.0
11
61.0
21
134.0
31
0.0
12
61.0
22
136.0
32
0.0
13
61.0001
23
136.0001
33
1.0E-4
0
3DFACE
8
0
10
61.0
20
136.0
30
0.0
11
59.0
21
136.0
31
0.0
12
59.0
22
134.0
32
0.0
13
59.0001
23
134.0001
33
1.0E-4
0
3DFACE
8
0
10
62.0
20
125.0
30
0.0
11
68.0
21
125.0
31
0.0
12
68.0
22
136.0
32
0.0
13
68.0001
23
136.0001
33
1.0E-4
0
3DFACE
8
0
10
68.0
20
136.0
30
0.0
11
62.0
21
136.0
31
0.0
12
62.0
22
125.0
32
0.0
13
62.0001
23
125.0001
33
1.0E-4
0
3DFACE
8
0
10
70.0
20
125.0
30
0.0
11
76.0
21
125.0
31
0.0
12
76.0
22
136.0
32
0.0
13
76.0001
23
136.0001
33
1.0E-4
0
3DFACE
8
0
10
76.0
20
136.0
30
0.0
11
70.0
21
136.0
31
0.0
12
70.0
22
125.0
32
0.0
13
70.0001
23
125.0001
33
1.0E-4
0
3DFACE
8
0
10
235.0
20
125.0
30
0.0
11
242.0
21
125.0
31
0.0
12
242.0
22
136.0
32
0.0
13
242.0001
23
136.0001
33
1.0E-4
0
3DFACE
8
0
10
242.0
20
136.0
30
0.0
11
235.0
21
136.0
31
0.0
12
235.0
22
125.0
32
0.0
13
235.0001
23
125.0001
33
1.0E-4
0
3DFACE
8
0
10
244.0
20
125.0
30
0.0
11
248.0
21
125.0
31
0.0
12
248.0
22
136.0
32
0.0
13
248.0001
23
136.0001
33
1.0E-4
0
3DFACE
8
0
10
248.0
20
136.0
30
0.0
11
244.0
21
136.0
31
0.0
12
244.0
22
125.0
32
0.0
13
244.0001
23
125.0001
33
1.0E-4
0
3DFACE
8
0
10
30.0
20
150.0
30
0.0
11
230.0
21
150.0
31
0.0
12
230.0
22
170.0
32
0.0
13
230.0001
23
170.0001
33
1.0E-4
0
3DFACE
8
0
10
230.0
20
170.0
30
0.0
11
30.0
21
170.0
31
0.0
12
30.0
22
150.0
32
0.0
13
30.0001
23
150.0001
33
1.0E-4
0
3DFACE
8
0
10
30.0
20
150.0
30
0.0
11
73.0
21
150.0
31
0.0
12
73.0
22
170.0
32
0.0
13
73.0001
23
170.0001
33
1.0E-4
0
3DFACE
8
0
10
73.0
20
170.0
30
0.0
11
30.0
21
170.0
31
0.0
12
30.0
22
150.0
32
0.0
13
30.0001
23
150.0001
33
1.0E-4
0
3DFACE
8
0
10
35.0
20
155.0
30
0.0
11
41.0
21
155.0
31
0.0
12
41.0
22
166.0
32
0.0
13
41.0001
23
166.0001
33
1.0E-4
0
3DFACE
8
0
10
41.0
20
166.0
30
0.0
11
35.0
21
166.0
31
0.0
12
35.0
22
155.0
32
0.0
13
35.0001
23
155.0001
33
1.0E-4
0
3DFACE
8
0
10
43.0
20
155.0
30
0.0
11
47.0
21
155.0
31
0.0
12
47.0
22
166.0
32
0.0
13
47.0001
23
166.0001
33
1.0E-4
0
3DFACE
8
0
10
47.0
20
166.0
30
0.0
11
43.0
21
166.0
31
0.0
12
43.0
22
155.0
32
0.0
13
43.0001
23
155.0001
33
1.0E-4
0
3DFACE
8
0
10
50.0
20
155.0
30
0.0
11
58.0
21
155.0
31
0.0
12
58.0
22
166.0
32
0.0
13
58.0001
23
166.0001
33
1.0E-4
0
3DFACE
8
0
10
58.0
20
166.0
30
0.0
11
50.0
21
166.0
31
0.0
12
50.0
22
155.0
32
0.0
13
50.0001
23
155.0001
33
1.0E-4
0
3DFACE
8
0
10
59.0
20
164.0
30
0.0
11
61.0
21
164.0
31
0.0
12
61.0
22
166.0
32
0.0
13
61.0001
23
166.0001
33
1.0E-4
0
3DFACE
8
0
10
61.0
20
166.0
30
0.0
11
59.0
21
166.0
31
0.0
12
59.0
22
164.0
32
0.0
13
59.0001
23
164.0001
33
1.0E-4
0
3DFACE
8
0
10
62.0
20
155.0
30
0.0
11
68.0
21
155.0
31
0.0
12
68.0
22
166.0
32
0.0
13
68.0001
23
166.0001
33
1.0E-4
0
3DFACE
8
0
10
68.0
20
166.0
30
0.0
11
62.0
21
166.0
31
0.0
12
62.0
22
155.0
32
0.0
13
62.0001
23
155.0001
33
1.0E-4
0
3DFACE
8
0
10
70.0
20
155.0
30
0.0
11
76.0
21
155.0
31
0.0
12
76.0
22
166.0
32
0.0
13
76.0001
23
166.0001
33
1.0E-4
0
3DFACE
8
0
10
76.0
20
166.0
30
0.0
11
70.0
21
166.0
31
0.0
12
70.0
22
155.0
32
0.0
13
70.0001
23
155.0001
33
1.0E-4
0
3DFACE
8
0
10
235.0
20
155.0
30
0.0
11
242.0
21
155.0
31
0.0
12
242.0
22
166.0
32
0.0
13
242.0001
23
166.0001
33
1.0E-4
0
3DFACE
8
0
10
242.0
20
166.0
30
0.0
11
235.0
21
166.0
31
0.0
12
235.0
22
155.0
32
0.0
13
235.0001
23
155.0001
33
1.0E-4
0
3DFACE
8
0
10
244.0
20
155.0
30
0.0
11
250.0
21
155.0
31
0.0
12
250.0
22
166.0
32
0.0
13
250.0001
23
166.0001
33
1.0E-4
0
3DFACE
8
0
10
250.0
20
166.0
30
0.0
11
244.0
21
166.0
31
0.0
12
244.0
22
155.0
32
0.0
13
244.0001
23
155.0001
33
1.0E-4
0
3DFACE
8
0
10
30.0
20
180.0
30
0.0
11
230.0
21
180.0
31
0.0
12
230.0
22
200.0
32
0.0
13
230.0001
23
200.0001
33
1.0E-4
0
3DFACE
8
0
10
230.0
20
200.0
30
0.0
11
30.0
21
200.0
31
0.0
12
30.0
22
180.0
32
0.0
13
30.0001
23
180.0001
33
1.0E-4
0
3DFACE
8
0
10
30.0
20
180.0
30
0.0
11
52.0
21
180.0
31
0.0
12
52.0
22
200.0
32
0.0
13
52.0001
23
200.0001
33
1.0E-4
0
3DFACE
8
0
10
52.0
20
200.0
30
0.0
11
30.0
21
200.0
31
0.0
12
30.0
22
180.0
32
0.0
13
30.0001
23
180.0001
33
1.0E-4
0
3DFACE
8
0
10
35.0
20
185.0
30
0.0
11
39.0
21
185.0
31
0.0
12
39.0
22
196.0
32
0.0
13
39.0001
23
196.0001
33
1.0E-4
0
3DFACE
8
0
10
39.0
20
196.0
30
0.0
11
35.0
21
196.0
31
0.0
12
35.0
22
185.0
32
0.0
13
35.0001
23
185.0001
33
1.0E-4
0
3DFACE
8
0
10
43.0
20
185.0
30
0.0
11
47.0
21
185.0
31
0.0
12
47.0
22
196.0
32
0.0
13
47.0001
23
196.0001
33
1.0E-4
0
3DFACE
8
0
10
47.0
20
196.0
30
0.0
11
43.0
21
196.0
31
0.0
12
43.0
22
185.0
32
0.0
13
43.0001
23
185.0001
33
1.0E-4
0
3DFACE
8
0
10
51.0
20
185.0
30
0.0
11
57.0
21
185.0
31
0.0
12
57.0
22
196.0
32
0.0
13
57.0001
23
196.0001
33
1.0E-4
0
3DFACE
8
0
10
57.0
20
196.0
30
0.0
11
51.0
21
196.0
31
0.0
12
51.0
22
185.0
32
0.0
13
51.0001
23
185.0001
33
1.0E-4
0
3DFACE
8
0
10
59.0
20
194.0
30
0.0
11
61.0
21
194.0
31
0.0
12
61.0
22
196.0
32
0.0
13
61.0001
23
196.0001
33
1.0E-4
0
3DFACE
8
0
10
61.0
20
196.0
30
0.0
11
59.0
21
196.0
31
0.0
12
59.0
22
194.0
32
0.0
13
59.0001
23
194.0001
33
1.0E-4
0
3DFACE
8
0
10
62.0
20
185.0
30
0.0
11
68.0
21
185.0
31
0.0
12
68.0
22
196.0
32
0.0
13
68.0001
23
196.0001
33
1.0E-4
0
3DFACE
8
0
10
68.0
20
196.0
30
0.0
11
62.0
21
196.0
31
0.0
12
62.0
22
185.0
32
0.0
13
62.0001
23
185.0001
33
1.0E-4
0
3DFACE
8
0
10
70.0
20
185.0
30
0.0
11
76.0
21
185.0
31
0.0
12
76.0
22
196.0
32
0.0
13
76.0001
23
196.0001
33
1.0E-4
0
3DFACE
8
0
10
76.0
20
196.0
30
0.0
11
70.0
21
196.0
31
0.0
12
70.0
22
185.0
32
0.0
13
70.0001
23
185.0001
33
1.0E-4
0
3DFACE
8
0
10
235.0
20
185.0
30
0.0
11
242.0
21
185.0
31
0.0
12
242.0
22
196.0
32
0.0
13
242.0001
23
196.0001
33
1.0E-4
0
3DFACE
8
0
10
242.0
20
196.0
30
0.0
11
235.0
21
196.0
31
0.0
12
235.0
22
185.0
32
0.0
13
235.0001
23
185.0001
33
1.0E-4
0
3DFACE
8
0
10
244.0
20
185.0
30
0.0
11
249.0
21
185.0
31
0.0
12
249.0
22
196.0
32
0.0
13
249.0001
23
196.0001
33
1.0E-4
0
3DFACE
8
0
10
249.0
20
196.0
30
0.0
11
244.0
21
196.0
31
0.0
12
244.0
22
185.0
32
0.0
13
244.0001
23
185.0001
33
1.0E-4
0
3DFACE
8
0
10
30.0
20
210.0
30
0.0
11
230.0
21
210.0
31
0.0
12
230.0
22
230.0
32
0.0
13
230.0001
23
230.0001
33
1.0E-4
0
3DFACE
8
0
10
230.0
20
230.0
30
0.0
11
30.0
21
230.0
31
0.0
12
30.0
22
210.0
32
0.0
13
30.0001
23
210.0001
33
1.0E-4
0
3DFACE
8
0
10
30.0
20
210.0
30
0.0
11
53.0
21
210.0
31
0.0
12
53.0
22
230.0
32
0.0
13
53.0001
23
230.0001
33
1.0E-4
0
3DFACE
8
0
10
53.0
20
230.0
30
0.0
11
30.0
21
230.0
31
0.0
12
30.0
22
210.0
32
0.0
13
30.0001
23
210.0001
33
1.0E-4
0
3DFACE
8
0
10
35.0
20
215.0
30
0.0
11
39.0
21
215.0
31
0.0
12
39.0
22
226.0
32
0.0
13
39.0001
23
226.0001
33
1.0E-4
0
3DFACE
8
0
10
39.0
20
226.0
30
0.0
11
35.0
21
226.0
31
0.0
12
35.0
22
215.0
32
0.0
13
35.0001
23
215.0001
33
1.0E-4
0
3DFACE
8
0
10
43.0
20
215.0
30
0.0
11
47.0
21
215.0
31
0.0
12
47.0
22
226.0
32
0.0
13
47.0001
23
226.0001
33
1.0E-4
0
3DFACE
8
0
10
47.0
20
226.0
30
0.0
11
43.0
21
226.0
31
0.0
12
43.0
22
215.0
32
0.0
13
43.0001
23
215.0001
33
1.0E-4
0
3DFACE
8
0
10
50.0
20
215.0
30
0.0
11
58.0
21
215.0
31
0.0
12
58.0
22
226.0
32
0.0
13
58.0001
23
226.0001
33
1.0E-4
0
3DFACE
8
0
10
58.0
20
226.0
30
0.0
11
50.0
21
226.0
31
0.0
12
50.0
22
215.0
32
0.0
13
50.0001
23
215.0001
33
1.0E-4
0
3DFACE
8
0
10
59.0
20
224.0
30
0.0
11
61.0
21
224.0
31
0.0
12
61.0
22
226.0
32
0.0
13
61.0001
23
226.0001
33
1.0E-4
0
3DFACE
8
0
10
61.0
20
226.0
30
0.0
11
59.0
21
226.0
31
0.0
12
59.0
22
224.0
32
0.0
13
59.0001
23
224.0001
33
1.0E-4
0
3DFACE
8
0
10
62.0
20
215.0
30
0.0
11
68.0
21
215.0
31
0.0
12
68.0
22
226.0
32
0.0
13
68.0001
23
226.0001
33
1.0E-4
0
3DFACE
8
0
10
68.0
20
226.0
30
0.0
11
62.0
21
226.0
31
0.0
12
62.0
22
215.0
32
0.0
13
62.0001
23
215.0001
33
1.0E-4
0
3DFACE
8
0
10
70.0
20
215.0
30
0.0
11
76.0
21
215.0
31
0.0
12
76.0
22
226.0
32
0.0
13
76.0001
23
226.0001
33
1.0E-4
0
3DFACE
8
0
10
76.0
20
226.0
30
0.0
11
70.0
21
226.0
31
0.0
12
70.0
22
215.0
32
0.0
13
70.0001
23
215.0001
33
1.0E-4
0
3DFACE
8
0
10
235.0
20
215.0
30
0.0
11
242.0
21
215.0
31
0.0
12
242.0
22
226.0
32
0.0
13
242.0001
23
226.0001
33
1.0E-4
0
3DFACE
8
0
10
242.0
20
226.0
30
0.0
11
235.0
21
226.0
31
0.0
12
235.0
22
215.0
32
0.0
13
235.0001
23
215.0001
33
1.0E-4
0
3DFACE
8
0
10
243.0
20
215.0
30
0.0
11
251.0
21
215.0
31
0.0
12
251.0
22
226.0
32
0.0
13
251.0001
23
226.0001
33
1.0E-4
0
3DFACE
8
0
10
251.0
20
226.0
30
0.0
11
243.0
21
226.0
31
0.0
12
243.0
22
215.0
32
0.0
13
243.0001
23
215.0001
33
1.0E-4
0
3DFACE
8
0
10
30.0
20
240.0
30
0.0
11
230.0
21
240.0
31
0.0
12
230.0
22
260.0
32
0.0
13
230.0001
23
260.0001
33
1.0E-4
0
3DFACE
8
0
10
230.0
20
260.0
30
0.0
11
30.0
21
260.0
31
0.0
12
30.0
22
240.0
32
0.0
13
30.0001
23
240.0001
33
1.0E-4
0
3DFACE
8
0
10
30.0
20
240.0
30
0.0
11
116.0
21
240.0
31
0.0
12
116.0
22
260.0
32
0.0
13
116.0001
23
260.0001
33
1.0E-4
0
3DFACE
8
0
10
116.0
20
260.0
30
0.0
11
30.0
21
260.0
31
0.0
12
30.0
22
240.0
32
0.0
13
30.0001
23
240.0001
33
1.0E-4
0
3DFACE
8
0
10
35.0
20
245.0
30
0.0
11
39.0
21
245.0
31
0.0
12
39.0
22
256.0
32
0.0
13
39.0001
23
256.0001
33
1.0E-4
0
3DFACE
8
0
10
39.0
20
256.0
30
0.0
11
35.0
21
256.0
31
0.0
12
35.0
22
245.0
32
0.0
13
35.0001
23
245.0001
33
1.0E-4
0
3DFACE
8
0
10
43.0
20
245.0
30
0.0
11
49.0
21
245.0
31
0.0
12
49.0
22
256.0
32
0.0
13
49.0001
23
256.0001
33
1.0E-4
0
3DFACE
8
0
10
49.0
20
256.0
30
0.0
11
43.0
21
256.0
31
0.0
12
43.0
22
245.0
32
0.0
13
43.0001
23
245.0001
33
1.0E-4
0
3DFACE
8
0
10
51.0
20
245.0
30
0.0
11
57.0
21
245.0
31
0.0
12
57.0
22
256.0
32
0.0
13
57.0001
23
256.0001
33
1.0E-4
0
3DFACE
8
0
10
57.0
20
256.0
30
0.0
11
51.0
21
256.0
31
0.0
12
51.0
22
245.0
32
0.0
13
51.0001
23
245.0001
33
1.0E-4
0
3DFACE
8
0
10
59.0
20
254.0
30
0.0
11
61.0
21
254.0
31
0.0
12
61.0
22
256.0
32
0.0
13
61.0001
23
256.0001
33
1.0E-4
0
3DFACE
8
0
10
61.0
20
256.0
30
0.0
11
59.0
21
256.0
31
0.0
12
59.0
22
254.0
32
0.0
13
59.0001
23
254.0001
33
1.0E-4
0
3DFACE
8
0
10
62.0
20
245.0
30
0.0
11
68.0
21
245.0
31
0.0
12
68.0
22
256.0
32
0.0
13
68.0001
23
256.0001
33
1.0E-4
0
3DFACE
8
0
10
68.0
20
256.0
30
0.0
11
62.0
21
256.0
31
0.0
12
62.0
22
245.0
32
0.0
13
62.0001
23
245.0001
33
1.0E-4
0
3DFACE
8
0
10
69.0
20
245.0
30
0.0
11
77.0
21
245.0
31
0.0
12
77.0
22
256.0
32
0.0
13
77.0001
23
256.0001
33
1.0E-4
0
3DFACE
8
0
10
77.0
20
256.0
30
0.0
11
69.0
21
256.0
31
0.0
12
69.0
22
245.0
32
0.0
13
69.0001
23
245.0001
33
1.0E-4
0
3DFACE
8
0
10
235.0
20
245.0
30
0.0
11
242.0
21
245.0
31
0.0
12
242.0
22
256.0
32
0.0
13
242.0001
23
256.0001
33
1.0E-4
0
3DFACE
8
0
10
242.0
20
256.0
30
0.0
11
235.0
21
256.0
31
0.0
12
235.0
22
245.0
32
0.0
13
235.0001
23
245.0001
33
1.0E-4
0
3DFACE
8
0
10
30.0
20
270.0
30
0.0
11
230.0
21
270.0
31
0.0
12
230.0
22
290.0
32
0.0
13
230.0001
23
290.0001
33
1.0E-4
0
3DFACE
8
0
10
230.0
20
290.0
30
0.0
11
30.0
21
290.0
31
0.0
12
30.0
22
270.0
32
0.0
13
30.0001
23
270.0001
33
1.0E-4
0
3DFACE
8
0
10
30.0
20
270.0
30
0.0
11
91.0
21
270.0
31
0.0
12
91.0
22
290.0
32
0.0
13
91.0001
23
290.0001
33
1.0E-4
0
3DFACE
8
0
10
91.0
20
290.0
30
0.0
11
30.0
21
290.0
31
0.0
12
30.0
22
270.0
32
0.0
13
30.0001
23
270.0001
33
1.0E-4
0
3DFACE
8
0
10
34.0
20
275.0
30
0.0
11
41.0
21
275.0
31
0.0
12
41.0
22
286.0
32
0.0
13
41.0001
23
286.0001
33
1.0E-4
0
3DFACE
8
0
10
41.0
20
286.0
30
0.0
11
34.0
21
286.0
31
0.0
12
34.0
22
275.0
32
0.0
13
34.0001
23
275.0001
33
1.0E-4
0
3DFACE
8
0
10
42.0
20
275.0
30
0.0
11
49.0
21
275.0
31
0.0
12
49.0
22
286.0
32
0.0
13
49.0001
23
286.0001
33
1.0E-4
0
3DFACE
8
0
10
49.0
20
286.0
30
0.0
11
42.0
21
286.0
31
0.0
12
42.0
22
275.0
32
0.0
13
42.0001
23
275.0001
33
1.0E-4
0
3DFACE
8
0
10
51.0
20
284.0
30
0.0
11
53.0
21
284.0
31
0.0
12
53.0
22
286.0
32
0.0
13
53.0001
23
286.0001
33
1.0E-4
0
3DFACE
8
0
10
53.0
20
286.0
30
0.0
11
51.0
21
286.0
31
0.0
12
51.0
22
284.0
32
0.0
13
51.0001
23
284.0001
33
1.0E-4
0
3DFACE
8
0
10
53.0
20
275.0
30
0.0
11
60.0
21
275.0
31
0.0
12
60.0
22
286.0
32
0.0
13
60.0001
23
286.0001
33
1.0E-4
0
3DFACE
8
0
10
60.0
20
286.0
30
0.0
11
53.0
21
286.0
31
0.0
12
53.0
22
275.0
32
0.0
13
53.0001
23
275.0001
33
1.0E-4
0
3DFACE
8
0
10
61.0
20
275.0
30
0.0
11
68.0
21
275.0
31
0.0
12
68.0
22
286.0
32
0.0
13
68.0001
23
286.0001
33
1.0E-4
0
3DFACE
8
0
10
68.0
20
286.0
30
0.0
11
61.0
21
286.0
31
0.0
12
61.0
22
275.0
32
0.0
13
61.0001
23
275.0001
33
1.0E-4
0
3DFACE
8
0
10
235.0
20
275.0
30
0.0
11
243.0
21
275.0
31
0.0
12
243.0
22
286.0
32
0.0
13
243.0001
23
286.0001
33
1.0E-4
0
3DFACE
8
0
10
243.0
20
286.0
30
0.0
11
235.0
21
286.0
31
0.0
12
235.0
22
275.0
32
0.0
13
235.0001
23
275.0001
33
1.0E-4
0
3DFACE
8
0
10
30.0
20
300.0
30
0.0
11
230.0
21
300.0
31
0.0
12
230.0
22
320.0
32
0.0
13
230.0001
23
320.0001
33
1.0E-4
0
3DFACE
8
0
10
230.0
20
320.0
30
0.0
11
30.0
21
320.0
31
0.0
12
30.0
22
300.0
32
0.0
13
30.0001
23
300.0001
33
1.0E-4
0
3DFACE
8
0
10
30.0
20
300.0
30
0.0
11
160.0
21
300.0
31
0.0
12
160.0
22
320.0
32
0.0
13
160.0001
23
320.0001
33
1.0E-4
0
3DFACE
8
0
10
160.0
20
320.0
30
0.0
11
30.0
21
320.0
31
0.0
12
30.0
22
300.0
32
0.0
13
30.0001
23
300.0001
33
1.0E-4
0
3DFACE
8
0
10
35.0
20
305.0
30
0.0
11
39.0
21
305.0
31
0.0
12
39.0
22
316.0
32
0.0
13
39.0001
23
316.0001
33
1.0E-4
0
3DFACE
8
0
10
39.0
20
316.0
30
0.0
11
35.0
21
316.0
31
0.0
12
35.0
22
305.0
32
0.0
13
35.0001
23
305.0001
33
1.0E-4
0
3DFACE
8
0
10
43.0
20
305.0
30
0.0
11
49.0
21
305.0
31
0.0
12
49.0
22
316.0
32
0.0
13
49.0001
23
316.0001
33
1.0E-4
0
3DFACE
8
0
10
49.0
20
316.0
30
0.0
11
43.0
21
316.0
31
0.0
12
43.0
22
305.0
32
0.0
13
43.0001
23
305.0001
33
1.0E-4
0
3DFACE
8
0
10
51.0
20
305.0
30
0.0
11
57.0
21
305.0
31
0.0
12
57.0
22
316.0
32
0.0
13
57.0001
23
316.0001
33
1.0E-4
0
3DFACE
8
0
10
57.0
20
316.0
30
0.0
11
51.0
21
316.0
31
0.0
12
51.0
22
305.0
32
0.0
13
51.0001
23
305.0001
33
1.0E-4
0
3DFACE
8
0
10
59.0
20
314.0
30
0.0
11
61.0
21
314.0
31
0.0
12
61.0
22
316.0
32
0.0
13
61.0001
23
316.0001
33
1.0E-4
0
3DFACE
8
0
10
61.0
20
316.0
30
0.0
11
59.0
21
316.0
31
0.0
12
59.0
22
314.0
32
0.0
13
59.0001
23
314.0001
33
1.0E-4
0
3DFACE
8
0
10
61.0
20
305.0
30
0.0
11
68.0
21
305.0
31
0.0
12
68.0
22
316.0
32
0.0
13
68.0001
23
316.0001
33
1.0E-4
0
3DFACE
8
0
10
68.0
20
316.0
30
0.0
11
61.0
21
316.0
31
0.0
12
61.0
22
305.0
32
0.0
13
61.0001
23
305.0001
33
1.0E-4
0
3DFACE
8
0
10
70.0
20
305.0
30
0.0
11
76.0
21
305.0
31
0.0
12
76.0
22
316.0
32
0.0
13
76.0001
23
316.0001
33
1.0E-4
0
3DFACE
8
0
10
76.0
20
316.0
30
0.0
11
70.0
21
316.0
31
0.0
12
70.0
22
305.0
32
0.0
13
70.0001
23
305.0001
33
1.0E-4
0
3DFACE
8
0
10
235.0
20
305.0
30
0.0
11
241.0
21
305.0
31
0.0
12
241.0
22
316.0
32
0.0
13
241.0001
23
316.0001
33
1.0E-4
0
3DFACE
8
0
10
241.0
20
316.0
30
0.0
11
235.0
21
316.0
31
0.0
12
235.0
22
305.0
32
0.0
13
235.0001
23
305.0001
33
1.0E-4
0
3DFACE
8
0
10
30.0
20
330.0
30
0.0
11
230.0
21
330.0
31
0.0
12
230.0
22
350.0
32
0.0
13
230.0001
23
350.0001
33
1.0E-4
0
3DFACE
8
0
10
230.0
20
350.0
30
0.0
11
30.0
21
350.0
31
0.0
12
30.0
22
330.0
32
0.0
13
30.0001
23
330.0001
33
1.0E-4
0
3DFACE
8
0
10
30.0
20
330.0
30
0.0
11
52.000004
21
330.0
31
0.0
12
52.000004
22
350.0
32
0.0
13
52.000103
23
350.0001
33
1.0E-4
0
3DFACE
8
0
10
52.000004
20
350.0
30
0.0
11
30.0
21
350.0
31
0.0
12
30.0
22
330.0
32
0.0
13
30.0001
23
330.0001
33
1.0E-4
0
3DFACE
8
0
10
35.0
20
335.0
30
0.0
11
41.0
21
335.0
31
0.0
12
41.0
22
346.0
32
0.0
13
41.0001
23
346.0001
33
1.0E-4
0
3DFACE
8
0
10
41.0
20
346.0
30
0.0
11
35.0
21
346.0
31
0.0
12
35.0
22
335.0
32
0.0
13
35.0001
23
335.0001
33
1.0E-4
0
3DFACE
8
0
10
43.0
20
335.0
30
0.0
11
49.0
21
335.0
31
0.0
12
49.0
22
346.0
32
0.0
13
49.0001
23
346.0001
33
1.0E-4
0
3DFACE
8
0
10
49.0
20
346.0
30
0.0
11
43.0
21
346.0
31
0.0
12
43.0
22
335.0
32
0.0
13
43.0001
23
335.0001
33
1.0E-4
0
3DFACE
8
0
10
51.0
20
335.0
30
0.0
11
57.0
21
335.0
31
0.0
12
57.0
22
346.0
32
0.0
13
57.0001
23
346.0001
33
1.0E-4
0
3DFACE
8
0
10
57.0
20
346.0
30
0.0
11
51.0
21
346.0
31
0.0
12
51.0
22
335.0
32
0.0
13
51.0001
23
335.0001
33
1.0E-4
0
3DFACE
8
0
10
59.0
20
344.0
30
0.0
11
61.0
21
344.0
31
0.0
12
61.0
22
346.0
32
0.0
13
61.0001
23
346.0001
33
1.0E-4
0
3DFACE
8
0
10
61.0
20
346.0
30
0.0
11
59.0
21
346.0
31
0.0
12
59.0
22
344.0
32
0.0
13
59.0001
23
344.0001
33
1.0E-4
0
3DFACE
8
0
10
62.0
20
335.0
30
0.0
11
68.0
21
335.0
31
0.0
12
68.0
22
346.0
32
0.0
13
68.0001
23
346.0001
33
1.0E-4
0
3DFACE
8
0
10
68.0
20
346.0
30
0.0
11
62.0
21
346.0
31
0.0
12
62.0
22
335.0
32
0.0
13
62.0001
23
335.0001
33
1.0E-4
0
3DFACE
8
0
10
70.0
20
335.0
30
0.0
11
76.0
21
335.0
31
0.0
12
76.0
22
346.0
32
0.0
13
76.0001
23
346.0001
33
1.0E-4
0
3DFACE
8
0
10
76.0
20
346.0
30
0.0
11
70.0
21
346.0
31
0.0
12
70.0
22
335.0
32
0.0
13
70.0001
23
335.0001
33
1.0E-4
0
3DFACE
8
0
10
234.0
20
335.0
30
0.0
11
248.0
21
335.0
31
0.0
12
248.0
22
347.0
32
0.0
13
248.0001
23
347.0001
33
1.0E-4
0
3DFACE
8
0
10
248.0
20
347.0
30
0.0
11
234.0
21
347.0
31
0.0
12
234.0
22
335.0
32
0.0
13
234.0001
23
335.0001
33
1.0E-4
0
3DFACE
8
0
10
249.0
20
335.0
30
0.0
11
261.0
21
335.0
31
0.0
12
261.0
22
348.0
32
0.0
13
261.0001
23
348.0001
33
1.0E-4
0
3DFACE
8
0
10
261.0
20
348.0
30
0.0
11
249.0
21
348.0
31
0.0
12
249.0
22
335.0
32
0.0
13
249.0001
23
335.0001
33
1.0E-4
0
3DFACE
8
0
10
262.0
20
335.0
30
0.0
11
276.0
21
335.0
31
0.0
12
276.0
22
347.0
32
0.0
13
276.0001
23
347.0001
33
1.0E-4
0
3DFACE
8
0
10
276.0
20
347.0
30
0.0
11
262.0
21
347.0
31
0.0
12
262.0
22
335.0
32
0.0
13
262.0001
23
335.0001
33
1.0E-4
0
ENDSEC
0
EOF
